<?xml version="1.0" encoding="utf-8"?>
<!-- Generator: Adobe Illustrator 22.0.1, SVG Export Plug-In . SVG Version: 6.00 Build 0)  -->
<svg version="1.1" id="Layer_1" xmlns="http://www.w3.org/2000/svg" xmlns:xlink="http://www.w3.org/1999/xlink" x="0px" y="0px"
	 viewBox="0 0 24 24" style="enable-background:new 0 0 24 24;" xml:space="preserve">
<style type="text/css">
	.st0{fill:url(#SVGID_1_);}
</style>
<linearGradient id="SVGID_1_" gradientUnits="userSpaceOnUse" x1="0.5701" y1="18.5989" x2="23.4295" y2="5.401">
	<stop  offset="0" style="stop-color:#01BEC4"/>
	<stop  offset="1" style="stop-color:#257CE3"/>
</linearGradient>
<path class="st0" d="M14.9,11.9c-0.2-0.6-0.5-1.2-1-1.7c-1.6-1.6-4.1-1.6-5.7,0l-5,5c-1.6,1.6-1.6,4.1,0,5.7c1.6,1.6,4.1,1.6,5.7,0
	l3.8-3.8l0.3,0c0.4,0,0.8,0,1.2-0.1l-4.7,4.7c-1,1-2.3,1.5-3.5,1.5s-2.6-0.5-3.5-1.5c-2-2-2-5.1,0-7.1l5-5C8.4,8.5,9.7,8,11,8
	c1.3,0,2.6,0.5,3.5,1.5c0.5,0.5,0.9,1.1,1.1,1.7C15.6,11.1,14.9,11.9,14.9,11.9z M9.1,12.1c0.2,0.6,0.5,1.3,1,1.8
	c1.6,1.6,4.1,1.6,5.7,0l5-5c1.6-1.6,1.6-4.1,0-5.7c-1.6-1.6-4.1-1.6-5.7,0L11.3,7L11,7c-0.4,0-0.8,0-1.2,0.1l4.7-4.7
	c1-1,2.3-1.5,3.5-1.5c1.3,0,2.6,0.5,3.5,1.5c2,2,2,5.1,0,7.1l-5,5c-1,1-2.3,1.5-3.5,1.5s-2.6-0.5-3.5-1.5C9,14,8.6,13.5,8.4,12.9
	C8.4,12.9,9.1,12.1,9.1,12.1z"/>
</svg>
