<?xml version="1.0" encoding="utf-8"?>
<!-- Generator: Adobe Illustrator 22.0.1, SVG Export Plug-In . SVG Version: 6.00 Build 0)  -->
<svg version="1.1" id="Layer_1" xmlns="http://www.w3.org/2000/svg" xmlns:xlink="http://www.w3.org/1999/xlink" x="0px" y="0px"
	 viewBox="0 0 24 24" style="enable-background:new 0 0 24 24;" xml:space="preserve">
<style type="text/css">
	.st0{fill:url(#SVGID_1_);}
</style>
<linearGradient id="SVGID_1_" gradientUnits="userSpaceOnUse" x1="3.7612" y1="18.5602" x2="20.2157" y2="9.0601">
	<stop  offset="0" style="stop-color:#01BEC4"/>
	<stop  offset="1" style="stop-color:#257CE3"/>
</linearGradient>
<path class="st0" d="M16.6,15.9c1.5-1.7,2.4-3.9,2.4-6.4C19,4.3,14.7,0,9.5,0S0,4.3,0,9.5S4.3,19,9.5,19c2.4,0,4.7-0.9,6.4-2.4
	l7.4,7.4l0.7-0.7L16.6,15.9z M9.5,18C4.8,18,1,14.2,1,9.5S4.8,1,9.5,1S18,4.8,18,9.5S14.2,18,9.5,18z"/>
</svg>
