<svg id="Layer_1" data-name="Layer 1" xmlns="http://www.w3.org/2000/svg" xmlns:xlink="http://www.w3.org/1999/xlink" viewBox="0 0 507 296.6"><defs><style>.cls-1{fill:#efefef;}.cls-12,.cls-14,.cls-15,.cls-2,.cls-24,.cls-35,.cls-9{fill:none;}.cls-2{stroke:#e1e0e0;}.cls-11,.cls-12,.cls-15,.cls-2,.cls-35{stroke-miterlimit:10;}.cls-3{fill:#fff;}.cls-4{fill:#004970;}.cls-5{fill:#f5f5f5;}.cls-6{fill:#aaa;}.cls-7{fill:#01384f;}.cls-8{fill:#facbb6;}.cls-9{stroke:#b66050;}.cls-14,.cls-24,.cls-9{stroke-linecap:round;stroke-linejoin:round;}.cls-11,.cls-12,.cls-9{stroke-width:0.7px;}.cls-10,.cls-11{fill:#4f4f4f;}.cls-11,.cls-12{stroke:#2a94f4;}.cls-13{fill:#eabeac;}.cls-14,.cls-24{stroke:#000;}.cls-14{stroke-width:0.46px;}.cls-15{stroke:#1f120c;stroke-width:1.91px;}.cls-16{fill:#020102;}.cls-17{fill:#ececec;}.cls-18{fill:#efbeab;}.cls-19{fill:#dad8de;}.cls-20{fill:#010102;}.cls-21{fill:#eca646;}.cls-22{fill:#082133;}.cls-23{fill:#efbeaa;}.cls-24{stroke-width:0.48px;}.cls-25{fill:#f6b69a;}.cls-26{fill:#cdeafb;}.cls-27{fill:#2a94f4;}.cls-28{fill:#f19180;}.cls-29{fill:#1e3058;}.cls-30{fill:#333;}.cls-31{opacity:0.34;isolation:isolate;fill:url(#linear-gradient);}.cls-32{fill:#a9ccea;}.cls-33{fill:#fcd286;}.cls-34{fill:#f9b751;}.cls-35{stroke:#ffebd4;stroke-width:0.1px;}.cls-36{fill:#f3efea;}.cls-37{fill:#008fc1;}</style><linearGradient id="linear-gradient" x1="1281.3" y1="69.36" x2="1234.23" y2="85.13" gradientTransform="translate(1670.77 99.71) rotate(176.18)" gradientUnits="userSpaceOnUse"><stop offset="0" stop-color="#fff"/><stop offset="0.23" stop-color="#fff" stop-opacity="0.77"/><stop offset="1" stop-color="#fff" stop-opacity="0"/></linearGradient></defs><title>group-presentation-2</title><rect class="cls-1" x="0.3" y="7.4" width="179" height="167.7"/><rect class="cls-2" x="7.2" y="14.4" width="179" height="167.7"/><polygon class="cls-3" points="27.3 174.7 0 174.7 151.7 7.6 179.1 7.6 27.3 174.7"/><polygon class="cls-3" points="179.3 32.3 179.3 38.8 55.8 174.9 49.9 174.9 179.3 32.3"/><rect class="cls-1" x="314.8" y="6.7" width="179" height="167.7"/><rect class="cls-2" x="321.8" y="13.7" width="179" height="167.7"/><polygon class="cls-3" points="341.9 174.1 314.6 174.1 466.3 6.9 493.6 6.9 341.9 174.1"/><polygon class="cls-3" points="493.8 31.7 493.8 38.2 370.3 174.3 364.4 174.3 493.8 31.7"/><path class="cls-4" d="M132.1,433.5a7.57,7.57,0,0,0-.1-1.5l-2.9-.3c-.8-90.3-1.4-177.9.4-237.1.8.1,1.7.1,2.5.2a9.83,9.83,0,0,0,.5-1.6c7.3,12.3,15.5,24.1,23.3,35l.7-.5c-7.9-11.1-16.3-23.2-23.7-35.7a9.66,9.66,0,0,0,.1-2.4c-1-.3-2.1-.6-3.2-.9.2-6.7.5-13,.8-18.9H120.4c.7,5.4,1.3,11.3,1.9,17.5-.6,0-1.2-.1-1.8-.1-.3,1.4-.5,2.8-.7,4.2h0L97.7,216.7l.7.6,21.3-24.4c0,.6-.1,1.2-.1,1.8,1.1,0,2.2-.1,3.3-.1,4.4,58.7,3,146.7,1.8,237H121a14.77,14.77,0,0,0-.1,2.1,109.53,109.53,0,0,1-40.7,24.8c5.6.2,11.4.2,17-.1a1.35,1.35,0,0,1-.7-1.6,4.43,4.43,0,0,1,1.2-1.5c7.5-6.5,15.4-12.6,23.4-18.4.2.9.4,1.8.6,2.6,1.2.1,2.4.1,3.6.1-.1,8.2.2,17.7-3,19a38.71,38.71,0,0,0,9-.1c-2.6-1.9-3.3-11-3.8-18.9,1.2-.1,2.4-.1,3.7-.2a20.48,20.48,0,0,0,.5-2.4c8.1,5.8,15.9,11.9,23.4,18.4a3.49,3.49,0,0,1,1.2,1.5,1.35,1.35,0,0,1-.7,1.6c5.6.3,11.4.3,17,.1A113.85,113.85,0,0,1,132.1,433.5Z" transform="translate(-35.4 -169.8)"/><path class="cls-5" d="M69.8,221.7,86.4,384.3l92.5-1.3,3.7-141.4A811,811,0,0,0,69.8,221.7Z" transform="translate(-35.4 -169.8)"/><path class="cls-4" d="M187,235c1.3.9-2.5,6.7-4.4,6.7-37.6-6-75.2-13.9-112.8-19.9-1.8.2-3-9.5-1.2-9.7C109.4,215.9,149.6,223.3,187,235ZM91.5,397.6a414.77,414.77,0,0,1,86.6-10.9c1.3,0,1.9-3.5.8-3.8a318.63,318.63,0,0,0-92.5,1.3C83,385.6,88.1,398.9,91.5,397.6Z" transform="translate(-35.4 -169.8)"/><path class="cls-6" d="M169.2,376.8a260.47,260.47,0,0,0-40.1-3.4c-6.6,0-13.2.2-19.7.6l-4.9.4-4.9.5-4.9.6-5.3.7c-.7-6.2-1.3-12.4-2-18.6s-1.2-12.1-1.8-18.2c-1.2-12.1-2.3-24.2-3.5-36.4-2.3-24.3-4.7-48.9-7.5-74.2,3.2,25.3,5.9,49.9,8.4,74.2s4.8,48.1,7.2,72.1l4.4-.6,4.9-.5,4.9-.4,4.9-.3c6.6-.4,13.2-.5,19.8-.4A247.51,247.51,0,0,1,169.2,376.8Z" transform="translate(-35.4 -169.8)"/><path class="cls-7" d="M174.4,233.7c-16.9-4.1-33.2-7.4-49.6-10.1s-32.8-5-50.2-6.7a475.2,475.2,0,0,1,50.5,5.7A465.06,465.06,0,0,1,174.4,233.7Z" transform="translate(-35.4 -169.8)"/><path class="cls-7" d="M172.1,384.2c-14.2-.5-27.7-1.1-41.2-.7s-27,1.7-40.7,5.4c13.6-4.4,27.3-6,40.8-6.4S158.1,383,172.1,384.2Z" transform="translate(-35.4 -169.8)"/><polygon class="cls-8" points="136.4 284.2 138.1 256.5 150.1 260.5 146.2 288.8 135.9 285.2 136.4 284.2"/><path class="cls-7" d="M183.9,453.4s-9.3,2.3-12.6-4.2l-23,8,37,5.6Z" transform="translate(-35.4 -169.8)"/><polygon class="cls-3" points="112.4 290.6 149.5 296.2 149.9 293 112.9 287.4 112.4 290.6"/><path class="cls-7" d="M199.5,324l-.6,1.8a187.43,187.43,0,0,0-15.7,34l-10.3,29.7a35,35,0,0,0-2,9.5l-3.8,43.8,20.5,1.5,5.2-44.1,24.2-47-1.3-27.5Z" transform="translate(-35.4 -169.8)"/><polygon class="cls-8" points="206.1 276.6 191.3 253.4 203.2 249.1 216.6 274.1 206.3 277.7 206.1 276.6"/><path class="cls-7" d="M250.8,438.3s-6.1,7.7-12.5,4.5l-13.7,20.7,32.8-18.6Z" transform="translate(-35.4 -169.8)"/><polygon class="cls-3" points="190.8 296.6 223.6 278 222 275.1 189.2 293.8 190.8 296.6"/><path class="cls-7" d="M205.6,350.1l4.5,44.3a20.48,20.48,0,0,0,1.6,6l18.4,40.9,18.4-10.4-15.9-37,.7-32s1.8-29.2-7.6-40.3L208,324.5Z" transform="translate(-35.4 -169.8)"/><polygon class="cls-8" points="128.8 127.5 137.5 135.9 134 141.6 124.8 131.6 128.8 127.5"/><path class="cls-8" d="M164.2,297.3V286.7a1.17,1.17,0,0,0-.9-1.1h0a1.07,1.07,0,0,0-1.3.8l-.8,2.9-6.8-7.4a1.23,1.23,0,0,0-2,.3l-2.3,4.2a1.08,1.08,0,0,0,0,1.1c1.2,2.5,6.1,12.2,10.2,14Z" transform="translate(-35.4 -169.8)"/><path class="cls-9" d="M156.1,294.9" transform="translate(-35.4 -169.8)"/><path class="cls-9" d="M159,289.3" transform="translate(-35.4 -169.8)"/><path class="cls-10" d="M203.4,279.8s2.3,5.2-8.7,31.7c0,0-6,11-8.7,11.4-4.3.6-16.3-5.9-25.5-19.1l6.9-5.1,13.5,7.8,7.9-20.5C188.9,285.9,193.5,272.3,203.4,279.8Z" transform="translate(-35.4 -169.8)"/><path class="cls-11" d="M183.9,312.5" transform="translate(-35.4 -169.8)"/><path class="cls-11" d="M181,306.4" transform="translate(-35.4 -169.8)"/><path class="cls-10" d="M214.6,270.9l18.1,8a3.3,3.3,0,0,1,1.9,3.3l-4.5,47.1s-18.2,5.4-34.5,2.1l-3.4-48.5a4.28,4.28,0,0,1,1.4-3.8l11.6-8.1Z" transform="translate(-35.4 -169.8)"/><path class="cls-12" d="M194.6,311.5" transform="translate(-35.4 -169.8)"/><path class="cls-12" d="M195.5,283.5" transform="translate(-35.4 -169.8)"/><polygon class="cls-8" points="178.4 147.1 190.5 146.9 192.1 153.4 178.5 152.9 178.4 147.1"/><path class="cls-8" d="M213.8,316.9l-7.6-7.5a1.07,1.07,0,0,0-1.4-.1h0a1.13,1.13,0,0,0-.4,1.5l1.5,2.6-6.6.8a1.24,1.24,0,0,0-1.2,1.6l1.4,4.6a1.09,1.09,0,0,0,.8.8c2.6.9,9.4,3.1,13.6,1.4Z" transform="translate(-35.4 -169.8)"/><path class="cls-10" d="M233.4,279.3s5.2,2.3,14.6,28.3c0,0,3.5,10,1.8,11.9-2.8,3.1-16.8,8-32.4,4.3l-.2-8.5,17.2-2.6-7.7-19.8C226.7,293,221.1,280.2,233.4,279.3Z" transform="translate(-35.4 -169.8)"/><path class="cls-11" d="M234.4,312.7" transform="translate(-35.4 -169.8)"/><path class="cls-11" d="M229.5,325.6" transform="translate(-35.4 -169.8)"/><path class="cls-8" d="M203,253.3a4,4,0,0,1-3.8,4.3,4.12,4.12,0,0,1-4.2-4,4,4,0,0,1,3.8-4.3A4.12,4.12,0,0,1,203,253.3Z" transform="translate(-35.4 -169.8)"/><path class="cls-8" d="M204.9,263.1l-.3,7.5c-.1,3.5,1.9,5.4,5.2,5.4h0c2.8.1,6.9-1.9,6.8-4.9V258.6Z" transform="translate(-35.4 -169.8)"/><path class="cls-13" d="M204.7,269.6s9.8-.2,12.5-9.2c.9-2.8-12.3,1.6-12.3,1.6Z" transform="translate(-35.4 -169.8)"/><path class="cls-8" d="M207.7,266h0c-5.6-.1-10.2-4.9-10.2-9.6v-10a10.86,10.86,0,0,1,10.3-11.1h0c5.9-.3,11.9,4.4,12.2,10.5l-.1,7.8A12.42,12.42,0,0,1,207.7,266Z" transform="translate(-35.4 -169.8)"/><path class="cls-14" d="M207.5,258.1" transform="translate(-35.4 -169.8)"/><path class="cls-14" d="M202.7,257.7" transform="translate(-35.4 -169.8)"/><path class="cls-4" d="M200.6,230.1c2.2-.8,7.8-1.6,8.7,3.3,5.5-.2,14.2.3,14.9,5.1,1,7-4.3,13.7-4.3,13.7l-1.4.6s-3.5-2-2.1-10.3c0,0-12.8,2.5-18.6-1S194,232.6,200.6,230.1Z" transform="translate(-35.4 -169.8)"/><path class="cls-8" d="M225.1,253.6a4,4,0,1,1-4.1-3.9A3.94,3.94,0,0,1,225.1,253.6Z" transform="translate(-35.4 -169.8)"/><path class="cls-8" d="M205.1,270.9l-3,2.1s-1.8,5,6.7,5.6,11-5.5,11-5.5l-6-3.1Z" transform="translate(-35.4 -169.8)"/><line class="cls-15" x1="227.5" y1="184" x2="227.5" y2="293.3"/><rect class="cls-10" x="185.52" y="180.94" width="83.8" height="6"/><path class="cls-16" d="M244.3,350.4h41.4a2.33,2.33,0,0,0,2.2-2.4h0a2.33,2.33,0,0,0-2.2-2.4H244.3a2.33,2.33,0,0,0-2.2,2.4h0A2.33,2.33,0,0,0,244.3,350.4Z" transform="translate(-35.4 -169.8)"/><path class="cls-16" d="M244,348.7a.37.37,0,0,0,.3-.1.75.75,0,0,0,.2-1l-21-36.4a.65.65,0,0,0-.9-.2.75.75,0,0,0-.2,1l21,36.4A.6.6,0,0,0,244,348.7Z" transform="translate(-35.4 -169.8)"/><path class="cls-17" d="M331.7,369.4l-43.6,1.2c-7.4.3-12.9,7.5-11.9,15.5h0c.9,6.6,6.2,11.6,12.3,11.6h51.9s18.7-7.2,12.8-24.7Z" transform="translate(-35.4 -169.8)"/><path d="M286.3,455.6l-7.3,3.9a2.09,2.09,0,0,0-1,2.3c.2.7.8,1.3,2.4,1.3,3.6.1,19.6-2.5,19.6-2.5v1.8l7.4-.9s.5-9.2-1.7-10.5Z" transform="translate(-35.4 -169.8)"/><path class="cls-18" d="M298,446.4l-11.8,9.2s1.3,3.5,6.8,1.2,12.5-5.9,12.5-5.9l-1-5.5Z" transform="translate(-35.4 -169.8)"/><polygon class="cls-18" points="270.3 281.1 263.2 246.5 251.4 247.7 261.3 279.9 270.3 281.1"/><polygon class="cls-17" points="240.8 216.3 250.7 273.1 273.2 273.1 264.5 217.2 240.8 216.3"/><path class="cls-17" d="M329.6,369.4l-32.9,1.2c-7.4.3-12.9,7.5-11.9,15.5h0c.9,6.6,6.2,11.6,12.3,11.6H349s18.7-7.2,12.8-24.7Z" transform="translate(-35.4 -169.8)"/><path d="M294.9,455.6l-7.3,3.9a2.09,2.09,0,0,0-1,2.3c.2.7.8,1.3,2.4,1.3,3.6.1,19.6-2.5,19.6-2.5v1.8l7.4-.9s.5-9.2-1.7-10.5Z" transform="translate(-35.4 -169.8)"/><path class="cls-8" d="M306.7,446.4l-11.8,9.2s1.3,3.5,6.8,1.2,12.5-5.9,12.5-5.9l-1-5.5Z" transform="translate(-35.4 -169.8)"/><polygon class="cls-8" points="278.9 281.1 271.8 246.5 260 247.7 270 279.9 278.9 281.1"/><polygon class="cls-17" points="249.5 216.3 259.3 273.1 281.8 273.1 273.1 217.2 249.5 216.3"/><rect class="cls-19" x="307.69" y="233.51" width="7" height="42"/><polygon class="cls-19" points="312.9 270.2 333.1 280.1 332.8 282.9 311.7 275.6 312.9 270.2"/><polygon class="cls-19" points="309.5 270.2 289.3 280.1 289.6 282.9 310.6 275.6 309.5 270.2"/><ellipse class="cls-20" cx="332.2" cy="287.9" rx="4.8" ry="5.2"/><ellipse class="cls-20" cx="289.3" cy="287.9" rx="4.8" ry="5.2"/><path class="cls-10" d="M326.8,406.3h40.7a4.25,4.25,0,0,0,4.1-4.4h0a4.25,4.25,0,0,0-4.1-4.4H326.8a4.25,4.25,0,0,0-4.1,4.4h0A4.25,4.25,0,0,0,326.8,406.3Z" transform="translate(-35.4 -169.8)"/><path class="cls-21" d="M332,318.5l-17.3,25.3a9.93,9.93,0,0,0,.9,12.3h0a8.16,8.16,0,0,0,12.9-1.2L344,332.2Z" transform="translate(-35.4 -169.8)"/><path class="cls-8" d="M299.8,331.4s-3.1-6.3-8.4-7.8c-4.1-1.1-7.5,5.6-8.8,8.6a1.32,1.32,0,0,0,.7,1.8h0a1.19,1.19,0,0,0,1.1-.4l1.4-2.1s-.3,4.5,3.3,4.1,4.7-1.9,4.7-1.9l4,3Z" transform="translate(-35.4 -169.8)"/><polygon class="cls-22" points="289.2 174.4 264 156 257.3 166.9 283.3 188.6 289.2 174.4"/><path class="cls-22" d="M331.3,313s11.3,4.8,19.4,21.8,11.2,38.1,11.2,38.1-15,4.5-32.3-3.6l-6.1-21.2s-5.4-6.8,0-28.1Z" transform="translate(-35.4 -169.8)"/><path class="cls-8" d="M293.9,338.2s-4.3-5.3-9.7-5.3c-4.2,0-6.1,7.4-6.8,10.7a1.19,1.19,0,0,0,1.1,1.5h0a1.2,1.2,0,0,0,1-.7l1-2.4s.6,4.5,4,3.1,4.2-3.1,4.2-3.1l4.5,1.8Z" transform="translate(-35.4 -169.8)"/><polygon class="cls-22" points="284.3 176 255.8 164.4 251.7 176.8 281.6 191.3 284.3 176"/><path class="cls-22" d="M329.8,321.3l-17.3,25.3a9.93,9.93,0,0,0,.9,12.3h0a8.16,8.16,0,0,0,12.9-1.2L341.8,335Z" transform="translate(-35.4 -169.8)"/><path d="M316.6,301.4l-7.6.3c-4.1,4.6-2.5,13.5-2.5,13.5l12.4-3.9Z" transform="translate(-35.4 -169.8)"/><polygon class="cls-8" points="280.3 138.1 288.1 150.3 295.9 143.2 284.5 125.4 280.3 138.1"/><polygon class="cls-23" points="284.5 144.6 284.4 136.3 281.1 139.4 284.5 144.6"/><path class="cls-8" d="M305.7,283.1s-5.2,2.7-3.5,10.2c0,0,1.3,5.4,3.2,13.2,1,4.1,5.3,6.3,8.7,4.3a18.67,18.67,0,0,0,6.1-5.6l2.3-4.2c5-11.2-5.5-23.3-16-18.3A3,3,0,0,1,305.7,283.1Z" transform="translate(-35.4 -169.8)"/><path class="cls-8" d="M304.9,300.8l-1.8,3.3c-.2.5.1,1,.6.9l2.5-.5Z" transform="translate(-35.4 -169.8)"/><path class="cls-24" d="M307.8,305.2" transform="translate(-35.4 -169.8)"/><path class="cls-24" d="M305.9,306.6" transform="translate(-35.4 -169.8)"/><path d="M316.5,294.1s-1.6-18.9-13.9-7.2c0,0,2.9-11.5,17.1-9.6a11.16,11.16,0,0,1,7.9,6c2.1,4.7.7,9.7-1.3,18.8l-6.4-4.5A22.87,22.87,0,0,0,316.5,294.1Z" transform="translate(-35.4 -169.8)"/><path d="M319.7,287.4l-.9,8.3c-20-.5-14.1-12.4-14.1-12.4S318.2,273.9,319.7,287.4Z" transform="translate(-35.4 -169.8)"/><polygon points="276 124 279.7 127.4 281.6 121.5 276 124"/><path d="M307.6,283.5s-6,3.1-5.6,8.1c0,0-6.4-4,3.2-9.5C310.9,278.9,307.6,283.5,307.6,283.5Z" transform="translate(-35.4 -169.8)"/><path d="M318.7,298s3.6,8.6,3.6,12.1l15.1-5.7s-4.4-5-5.8-9.4c-1.1-3.5-1.6-12.2-8.2-16.1l.3,11.5Z" transform="translate(-35.4 -169.8)"/><path class="cls-8" d="M322.2,295a4.23,4.23,0,0,1-2.2,5.3,3.79,3.79,0,0,1-4.9-2.4,4.23,4.23,0,0,1,2.2-5.3A3.72,3.72,0,0,1,322.2,295Z" transform="translate(-35.4 -169.8)"/><path class="cls-24" d="M319,294.5" transform="translate(-35.4 -169.8)"/><path class="cls-24" d="M317.4,297.8" transform="translate(-35.4 -169.8)"/><path class="cls-8" d="M331.3,313s-2.4,7.6-8.6,10.5l1.8-8.5Z" transform="translate(-35.4 -169.8)"/><path class="cls-25" d="M345.2,275.1l6.6,3.8-.5,3.9,5.2,4.7-6.9,7.9-16-10.9s4.3-13.6,5.3-13.3C339.9,271.7,345.2,275.1,345.2,275.1Z" transform="translate(-35.4 -169.8)"/><polygon class="cls-26" points="300.3 101.5 303.1 121.7 314.3 122 317 101.5 300.3 101.5"/><polyline class="cls-27" points="297.9 101.8 319 101.8 319 99.8 317 99.8 317 96.7 299.9 99 299.8 100.1 297.9 100.1 297.9 102"/><path class="cls-8" d="M334.8,285c-3.9.3,1-9.3,1-9.3s10.5-.6,10.6-.1a1.23,1.23,0,0,1-.8,1.6c-.8.2-7.4,1-7.4,1s6.8.3,6.7,1c-.2,1-1,1.1-3,1.4-1.7.2-5.5.3-5.5.3s7.2.1,7.1.6.3,1.8-2.2,1.4C335.6,282.1,334.8,285,334.8,285Z" transform="translate(-35.4 -169.8)"/><path class="cls-25" d="M351.7,276.7s2.5-4.6,5.6-4.4c0,0-3.7,4.1-4.2,6.9s-.7,4.7-.7,4.7h-1.6Z" transform="translate(-35.4 -169.8)"/><path class="cls-4" d="M382.1,323.9s-10.7,68.3-5.7,82.8a169.78,169.78,0,0,1,6.9,27.6l24.8-6.6s-8.2-34.2-9.4-40.7,11.5-59.9,11.5-59.9Z" transform="translate(-35.4 -169.8)"/><path class="cls-4" d="M393.8,328.8l11.7,109.8h23.7s-7.7-116.2-6.3-117.2S393.8,328.8,393.8,328.8Z" transform="translate(-35.4 -169.8)"/><path class="cls-7" d="M384.4,261.9s-2.5,36.8-8,35.5-20.1-10.9-20.1-10.9l-8.9,8.8s27.1,27.3,38.2,16.1C396.9,300.3,384.4,261.9,384.4,261.9Z" transform="translate(-35.4 -169.8)"/><path class="cls-7" d="M391.8,456.9l-1.6-7.4,17.3-6.3,2.7,11-1,.1c-3.9,1.6-22.7,9.5-25.7,9.8C380.2,464.4,391.8,456.9,391.8,456.9Z" transform="translate(-35.4 -169.8)"/><path class="cls-8" d="M432.9,348.9l-1.9,2.5a24.68,24.68,0,0,1-3.1,4.2,8.7,8.7,0,0,1-2.1,1.7,20.13,20.13,0,0,1-3.1,1.4c-1,.2-1.3,1.4-.4,1.8s3.8-.2,6.5-2,1.5,2.9,1,4.6-1.5,7.1-1,7.7c.7.8,1.8.3,2.2-1.5s1.9-6.9,2.9-6.6-1.3,9-1.3,9-.8,1.8.3,2.1c2.1.6,3.8-8.9,3.9-9.8.1-.6,1.2-.4,1,.3s-2.5,8.7-.4,9.3c1.6.5,1.5-7.8,3-9.2s-.6,6.3.9,6.7c.6.1,1,.2,1.6-4.4s-.3-17.6-.3-17.6l-9.9.1" transform="translate(-35.4 -169.8)"/><path class="cls-8" d="M398.5,249.5c.2-1.5-.6-7.6-.6-7.6s-6.2-.4-6.8-6-.7-18.4-.7-18.4l11.1-5.3,12.7,8.2,2.9,6.1L413.3,241v7.3Z" transform="translate(-35.4 -169.8)"/><path class="cls-28" d="M397.9,241.9a17.21,17.21,0,0,0,8.1-2.7s-1.7,4.1-7.9,4.1Z" transform="translate(-35.4 -169.8)"/><path class="cls-7" d="M416.9,232.6a40.4,40.4,0,0,0-2.7,8.3c-.9,1.5-1.2-3.3-1.2-3.3s-.8-4.7-.1-6.5c0,0,3.1.9,3.8-4.2.3-2.5-3.8-3.7-5-.7l-2.6.2s-.2-9.5-6.2-7.8c0,0-4.4,2.4-7,.9s-2.4-2-2.4-2-1.3,2.5-4.6.9-3.8-4.6-2.6-6c.7-.8,1.3-1.7,2.4-1.9a3.3,3.3,0,0,1,3,1c-.8-1.1-.2-2.7,1-3.5a5.12,5.12,0,0,1,4.2-.2,13.4,13.4,0,0,1,3.6,2.2,5.49,5.49,0,0,1,5.5-3.2,5.36,5.36,0,0,1,4.8,4,5.24,5.24,0,0,1,5.5-1,6,6,0,0,1,3.4,4.3,10.08,10.08,0,0,1-.8,5.4,3.68,3.68,0,0,1,4.3,1,4,4,0,0,1,.3,4.2,7.67,7.67,0,0,1-3.4,3,2.54,2.54,0,0,1,.7,3.4,3.18,3.18,0,0,1-3.5,1.3" transform="translate(-35.4 -169.8)"/><path class="cls-28" d="M412.5,229.2a.35.35,0,0,0,.2.1c.1.1.4.1.7.1a2.07,2.07,0,0,0,1.2-1.8,2.54,2.54,0,0,0-.2-1.2,1.08,1.08,0,0,0-.6-.7.56.56,0,0,0-.6.2.31.31,0,0,0-.1.2.44.44,0,0,1-.1-.3c0-.1.1-.2.2-.3a.75.75,0,0,1,.5-.1c.4,0,.7.4.9.8a2,2,0,0,1,.2,1.3,2.19,2.19,0,0,1-1.5,2,.86.86,0,0,1-.8-.2Z" transform="translate(-35.4 -169.8)"/><path class="cls-26" d="M438.2,264.1s-4.2-17.7-24.8-15.9l-18.8,1.7s-12.9,4.9-11.1,18.9,2.7,26.7,2.2,29.1-5,24.4-3.6,25.9c13.6,14.9,48.2-8.9,48.2-8.9Z" transform="translate(-35.4 -169.8)"/><path class="cls-7" d="M413.4,248.3,418.2,352l14.3-7L431,253C430.9,253,427.1,247,413.4,248.3Z" transform="translate(-35.4 -169.8)"/><path class="cls-7" d="M443.1,350.8l-4.9-86.6c-1.5-5.3-4.8-9.4-9-12.8V352Z" transform="translate(-35.4 -169.8)"/><path class="cls-7" d="M398.5,249.5s-12.8,5.8-12.2,25.2-7.7,74.5-7.7,74.5l-10.7-2s12.4-52.1,12.9-61.3-.4-22.5,6.6-31.6C392.3,247.9,398.5,249.5,398.5,249.5Z" transform="translate(-35.4 -169.8)"/><path class="cls-29" d="M413.4,248.3s4.2,8.5,3.8,11.7-1.9,9.7-1.9,9.7,3.1,1.7,2.9,3.2-3.2,16.5-3.2,16.5Z" transform="translate(-35.4 -169.8)"/><path class="cls-29" d="M426.9,269.4a16.44,16.44,0,0,1,.4,3.2c.2,2.1.4,5.1.5,8.8.3,7.5.6,17.8.8,29.2s.3,21.7.5,29.2c.1,3.7.1,6.7.2,8.8a25.9,25.9,0,0,1,0,3.2,16.44,16.44,0,0,1-.4-3.2c-.2-2.1-.4-5.1-.5-8.8-.3-7.5-.6-17.8-.8-29.2s-.3-21.7-.5-29.2c-.1-3.7-.1-6.7-.2-8.8A13.38,13.38,0,0,1,426.9,269.4Z" transform="translate(-35.4 -169.8)"/><path class="cls-8" d="M391.6,449c.2-.1-4.3-15.7-4.3-15.7l15.2-4,3.2,14.7Z" transform="translate(-35.4 -169.8)"/><rect class="cls-8" x="373.9" y="268.8" width="17.3" height="12.3"/><path class="cls-7" d="M407.7,457.5l1.6-7.4h18.6l-2,10.9h-1c-4.3.2-25,1.2-27.9.4C393.9,460.6,407.7,457.5,407.7,457.5Z" transform="translate(-35.4 -169.8)"/><path class="cls-7" d="M514.4,230.1c1.3,4.2,2.6,8.5,3.9,12.7a3.81,3.81,0,0,1,.3,1.8c0,1.8-1.8,3.2-3.6,3.5a13,13,0,0,1-5.5-.6c-.5,1.8-2.7,2.6-4.6,2.9a42.26,42.26,0,0,1-25.3-3.1,69.15,69.15,0,0,0,8.2-15.1l20,.9a8.21,8.21,0,0,0,3.5-.3,3.13,3.13,0,0,0,2.2-2.5" transform="translate(-35.4 -169.8)"/><path class="cls-28" d="M436.9,286l-2-2.2a23.94,23.94,0,0,1-3.4-3.6,7.76,7.76,0,0,1-1.2-2.2,11.77,11.77,0,0,1-.7-3,1,1,0,0,0-1.7-.7c-.5.7-.7,3.2.5,6s-3.1.6-4.7-.2-6.6-2.9-7.3-2.7c-.9.4-.6,1.5,1,2.2s6.3,3.3,5.8,4.1-8.5-3.3-8.5-3.3-1.6-1.1-2.1-.2c-1,1.6,7.9,5.3,8.7,5.7.6.2.1,1.1-.5.8s-7.9-4.2-9-2.6c-.8,1.3,7.3,3.1,8.3,4.7s-6-2-6.7-.8c-.3.5-.4.8,3.9,2.4,4.5,1.6,17.2,3.9,17.2,3.9l2.1-8.5" transform="translate(-35.4 -169.8)"/><path class="cls-8" d="M473,266s-7.3,20.4-9.5,20.6c-15.3,1.4-32-5.1-32-5.1L427.3,293s43.5,18.8,52.8.7c9.9-19.3,9.4-22.3,9.4-22.3Z" transform="translate(-35.4 -169.8)"/><path class="cls-26" d="M474,381.3c7.8,34.6,59,66.9,59,66.9l8.7-10.4s-41.2-35.6-42.9-51.4,11.9-40.6,11.9-40.6L496.5,340Z" transform="translate(-35.4 -169.8)"/><path class="cls-8" d="M491.3,255c.3-1.4-.3-7.4-.3-7.4s-5.6-.6-6-6,0-17.9,0-17.9l10.3-4.9,11.3,8.3-1.7,27.1Z" transform="translate(-35.4 -169.8)"/><path class="cls-7" d="M505.7,231.3s-9.2-.8-10.8-8.9l-10,8.9s-3-6,2.5-11.6,9.3-4.4,11.5-4.4a17.72,17.72,0,0,1,15.3,13.4c.2.8.4,2.8.5,3.8Z" transform="translate(-35.4 -169.8)"/><path class="cls-28" d="M491,247.6a14.74,14.74,0,0,0,7.4-2.4s-1.7,4-7.3,3.8Z" transform="translate(-35.4 -169.8)"/><path class="cls-30" d="M479.4,316.1a23,23,0,0,0,.7,4.6l39.6,11.1s2.8-17.4-4.4-27c-3.3-4.4-2.6-10.7-1.2-16l4.7-18.2-6.2-17.1-25,1.6s-14.5-1.4-19.5,17.1l9.3,13.5.1,5.1Z" transform="translate(-35.4 -169.8)"/><path class="cls-26" d="M518.1,309.3c.4,0,7.6,15.6,1.1,24.9-.6.9-2.1,3-4.1,6-9.6,14.3-31.5,47.9-32.3,52.8-.9,5.9-18.6,68.6-18.6,68.6l-13.2-2,10.8-71,17.6-72.4Z" transform="translate(-35.4 -169.8)"/><path class="cls-7" d="M495.2,221.7s-2,3.8-1.2,6.7l-9,2.2C485,230.7,483,219.7,495.2,221.7Z" transform="translate(-35.4 -169.8)"/><path class="cls-7" d="M514.8,231.7s1.1,12.5-9.8,14.7l.7-15Z" transform="translate(-35.4 -169.8)"/><polygon class="cls-31" points="455.4 115.7 422.9 73.9 361.9 100.6 386.5 123.4 414.3 127.8 455.4 115.7"/><polygon class="cls-32" points="438.3 119.9 416 129 379.6 129.8 361.9 100.6 399.4 98.2 415.6 126.4 438.2 117.9 438.3 119.9"/><path class="cls-33" d="M512.6,253.4" transform="translate(-35.4 -169.8)"/><polygon class="cls-30" points="434.3 98.5 428.1 113.3 442.1 120.1 443.4 107.1 434.3 98.5"/><polygon class="cls-34" points="473 83.8 470.6 81.1 460.5 83.6 461.7 86.5 473 83.8"/><polyline class="cls-25" points="461.7 86.5 457.7 94.1 457.6 86.5 458 84.2 460.7 84.2 461.7 86.5"/><polygon class="cls-34" points="457.6 86.5 458.1 83.6 455.6 82.6 452.7 85.2 457.6 86.5"/><path class="cls-35" d="M475.1,284.2" transform="translate(-35.4 -169.8)"/><path class="cls-34" d="M477.4,290.1a1.92,1.92,0,0,0,.2-1,4.08,4.08,0,0,0-1.2-2.5c-.7-.9-1.9-1.8-2.1-3.2a4.24,4.24,0,0,1,.2-2.2,4.2,4.2,0,0,1,1.4-1.8,4,4,0,0,1,2.1-.7h.2v-.2c.4-2.8.9-5.4,1.1-7.2a6.2,6.2,0,0,0-.1-2.9,26,26,0,0,0-.3,2.9c-.2,1.8-.8,4.3-1.3,7.2l.3-.3a4.32,4.32,0,0,0-4.2,5.4,5.36,5.36,0,0,0,1,2c.5.5.9,1,1.3,1.4a4.34,4.34,0,0,1,1.3,2.2C477.5,289.7,477.3,290.1,477.4,290.1Z" transform="translate(-35.4 -169.8)"/><path class="cls-34" d="M477.4,270.5c-.1.1.2.8.6,1.6s.6,1.6.8,1.6.2-.9-.2-1.8S477.5,270.4,477.4,270.5Z" transform="translate(-35.4 -169.8)"/><path class="cls-34" d="M463,283.1a44.33,44.33,0,0,0,7.2,3.7,60.53,60.53,0,0,0,7.5,2.9c.1-.2-3.2-1.6-7.3-3.4S463.1,283,463,283.1Z" transform="translate(-35.4 -169.8)"/><path class="cls-34" d="M463.8,281a44.88,44.88,0,0,0,6.4,3.6,43.93,43.93,0,0,0,6.7,3.1,44.88,44.88,0,0,0-6.4-3.6A43.93,43.93,0,0,0,463.8,281Z" transform="translate(-35.4 -169.8)"/><path class="cls-34" d="M482.6,271c0,.2.8.3,1.9.4s1.9,0,1.9-.2-.8-.3-1.9-.4S482.6,270.8,482.6,271Z" transform="translate(-35.4 -169.8)"/><path class="cls-34" d="M482.3,271.7c0,.2.9.5,2.2.8a6.29,6.29,0,0,0,2.3.3c0-.2-.9-.5-2.2-.8S482.3,271.5,482.3,271.7Z" transform="translate(-35.4 -169.8)"/><path class="cls-7" d="M449.8,459.5s-11.6,3-8.7,3.9,23-1.3,23-1.3l.7-2.2Z" transform="translate(-35.4 -169.8)"/><polygon class="cls-7" points="428.7 292.3 432.7 281.5 415 281.5 414.4 289.7 428.7 292.3"/><path class="cls-7" d="M533.1,448.9s-2.9,11.3-.8,9.2S542.4,438,542.4,438l-1.7-1.6Z" transform="translate(-35.4 -169.8)"/><polygon class="cls-7" points="507 268.2 499.3 259.6 490.7 274.6 497.7 279.1 507 268.2"/><path class="cls-7" d="M494.4,218.2a6.65,6.65,0,0,0-2.8.3,12,12,0,0,0-5.7,3.4,12.74,12.74,0,0,0-3.1,5.8,5.81,5.81,0,0,0-.1,2.7c.1,0,.1-1,.6-2.6a12.92,12.92,0,0,1,3.1-5.5,13.06,13.06,0,0,1,5.4-3.4C493.3,218.4,494.4,218.3,494.4,218.2Z" transform="translate(-35.4 -169.8)"/><path class="cls-36" d="M419.9,284.4a2.46,2.46,0,0,0,2.7,1.8c1-.3,1.4-1.7.9-3a2.46,2.46,0,0,0-2.7-1.8A2.23,2.23,0,0,0,419.9,284.4Z" transform="translate(-35.4 -169.8)"/><path class="cls-37" d="M500.9,316.8s-.5-50,1.3-53.8c0,0,1.9-9.4,9.3-9.6l-3.3.2s-6.7-.5-8.7,12.4-1.8,51.2-1.8,51.2Z" transform="translate(-35.4 -169.8)"/><path class="cls-37" d="M486.5,318.6s-2-57.5-.4-63.5h-2s-1.8,4.9-1.4,18.7c.2,8.3,0,44.8,0,44.8Z" transform="translate(-35.4 -169.8)"/><path class="cls-25" d="M462.8,293s-9.7,6-11.8,5.9-8.2-.2-7.6.6,7.6,1.9,7.6,1.9Z" transform="translate(-35.4 -169.8)"/><path class="cls-8" d="M463.6,305.6s46,12,52.3-7.4c6.7-20.5,6.8-15.2,6.8-15.2l-14.4-13.5s-7.7,23.7-9.9,24.2c-12.1,3-25.8,1.1-30.6.2-.5-.4-1.2-1-1.9-1.6a7.49,7.49,0,0,1-1.5-2,10.07,10.07,0,0,1-1.1-2.8,1,1,0,0,0-1.8-.5c-.4.7-.1,3.3,1.5,5.9,0,0-10.9,6.8-11.8,8.5Z" transform="translate(-35.4 -169.8)"/><path class="cls-30" d="M512.6,253.4s10.5,1.9,10.9,18a61.1,61.1,0,0,1-6.3,28.2l-17.8-9,13.2-37.2" transform="translate(-35.4 -169.8)"/><path class="cls-34" d="M499.5,290.7a22.15,22.15,0,0,0,2.7,1.3c1.7.7,3.9,1.8,6.4,3s4.7,2.5,6.2,3.4a18.43,18.43,0,0,0,2.6,1.4,8.52,8.52,0,0,0-2.4-1.7,52.74,52.74,0,0,0-6.2-3.5,53.34,53.34,0,0,0-6.5-2.9A8.3,8.3,0,0,0,499.5,290.7Z" transform="translate(-35.4 -169.8)"/><path class="cls-34" d="M500.2,289.5a12.67,12.67,0,0,0,2.7,1.1c1.7.6,4,1.6,6.4,2.7s4.6,2.3,6.2,3.2a10,10,0,0,0,2.6,1.3,12.91,12.91,0,0,0-2.3-1.7,61.2,61.2,0,0,0-6.1-3.4,62.22,62.22,0,0,0-6.5-2.6A20.42,20.42,0,0,0,500.2,289.5Z" transform="translate(-35.4 -169.8)"/><path class="cls-34" d="M505.3,272.3c.2,0,.5-1.3.3-3a5.25,5.25,0,0,0-.8-2.9c-.2,0,.1,1.4.2,3S505.1,272.3,505.3,272.3Z" transform="translate(-35.4 -169.8)"/><path class="cls-34" d="M499.5,290.6a15.23,15.23,0,0,0,1.7-3.2,58,58,0,0,0,3.1-8.1,56.51,56.51,0,0,0,1.9-8.5,15.91,15.91,0,0,0,.3-3.6,33.55,33.55,0,0,0-.8,3.5,78.44,78.44,0,0,1-2.1,8.4c-1,3.2-2.1,6.1-2.9,8.1S499.4,290.5,499.5,290.6Z" transform="translate(-35.4 -169.8)"/></svg>