<?xml version="1.0" encoding="utf-8"?>
<!-- Generator: Adobe Illustrator 22.0.1, SVG Export Plug-In . SVG Version: 6.00 Build 0)  -->
<svg version="1.1" id="Layer_1" xmlns="http://www.w3.org/2000/svg" xmlns:xlink="http://www.w3.org/1999/xlink" x="0px" y="0px"
	 viewBox="0 0 932.7 630.2" style="enable-background:new 0 0 932.7 630.2;" xml:space="preserve">
<style type="text/css">
	.st0{fill:url(#SVGID_1_);}
	.st1{fill:#EFEFEF;}
	.st2{fill:none;stroke:#E1E0E0;stroke-miterlimit:10;}
	.st3{fill:#FFFFFF;}
	.st4{fill:#004970;}
	.st5{fill:#F5F5F5;}
	.st6{fill:#AAAAAA;}
	.st7{fill:#01384F;}
	.st8{fill:#FACBB6;}
	.st9{fill:none;stroke:#B66050;stroke-width:0.7;stroke-linecap:round;stroke-linejoin:round;}
	.st10{fill:#4F4F4F;}
	.st11{fill:#4F4F4F;stroke:#2A94F4;stroke-width:0.7;stroke-miterlimit:10;}
	.st12{fill:none;stroke:#2A94F4;stroke-width:0.7;stroke-miterlimit:10;}
	.st13{fill:#EABEAC;}
	.st14{fill:none;stroke:#000000;stroke-width:0.46;stroke-linecap:round;stroke-linejoin:round;}
	.st15{fill:none;stroke:#1F120C;stroke-width:1.91;stroke-miterlimit:10;}
	.st16{fill:#020102;}
	.st17{fill:#ECECEC;}
	.st18{fill:#EFBEAB;}
	.st19{fill:#DAD8DE;}
	.st20{fill:#010102;}
	.st21{fill:#ECA646;}
	.st22{fill:#082133;}
	.st23{fill:#EFBEAA;}
	.st24{fill:none;stroke:#000000;stroke-width:0.48;stroke-linecap:round;stroke-linejoin:round;}
	.st25{fill:#F6B69A;}
	.st26{fill:#CDEAFB;}
	.st27{fill:#2A94F4;}
	.st28{fill:#F19180;}
	.st29{fill:#1E3058;}
	.st30{fill:#333333;}
	.st31{opacity:0.34;fill:url(#SVGID_2_);enable-background:new    ;}
	.st32{fill:#A9CCEA;}
	.st33{fill:#FCD286;}
	.st34{fill:#F9B751;}
	.st35{fill:none;stroke:#FFEBD4;stroke-width:0.1;stroke-miterlimit:10;}
	.st36{fill:#F3EFEA;}
	.st37{fill:#008FC1;}
</style>
<title>group-presentation-5</title>
<g id="Layer_3">
	
		<linearGradient id="SVGID_1_" gradientUnits="userSpaceOnUse" x1="62.7818" y1="-127.094" x2="931.8098" y2="374.6395" gradientTransform="matrix(1 0 0 -1 -32.72 466.19)">
		<stop  offset="0" style="stop-color:#01BEC4"/>
		<stop  offset="1" style="stop-color:#257CE3"/>
	</linearGradient>
	<path class="st0" d="M51.3,110.2C220.7-5.6,317.1-4.9,374.3,19.1c38.5,16.1,49.2,38.6,94,44.4c83.4,10.8,114-59.2,217-63.2
		c66.4-2.6,116.1,24.1,134,34c26.1,14.4,99,54.8,102,112.4c3.4,65-85.4,92.9-74,149.2c7.3,36.2,46,34.1,70,76.5
		c34.4,60.8,9.2,161.5-56,213.4c-79.5,63.2-197.7,37.1-233,29.3c-86.5-19.1-111.8-58.8-171-45.3c-58.1,13.2-63.2,58.2-114,60.4
		c-58.1,2.5-72.1-55.5-134-58.5c-70.2-3.5-96.7,69.1-140,57.6c-50.5-13.4-85-130.5-55-226.6c24.4-77.9,83-115.7,63-154.8
		c-17.1-33.4-72-30-77-63.3c-3-19.8,18.1-42.8,27-52.9C34.4,123.4,42.4,116.2,51.3,110.2z"/>
</g>
<g id="Layer_1_1_">
	<rect x="105.3" y="136.3" class="st1" width="261.3" height="245.3"/>
	<rect x="115.4" y="146.5" class="st2" width="261.3" height="245.3"/>
	<polygon class="st3" points="144.8,380.6 104.9,380.6 326.6,136.3 366.7,136.3 	"/>
	<polygon class="st3" points="366.6,173.1 366.6,182.6 186,381.6 177.4,381.6 	"/>
	<rect x="564.9" y="135.3" class="st1" width="261.3" height="245.3"/>
	<rect x="576.1" y="145.4" class="st2" width="261.3" height="245.3"/>
	<polygon class="st3" points="604.9,379.5 565,379.5 786.6,135.3 826.5,135.3 	"/>
	<polygon class="st3" points="827.3,172.1 827.3,181.6 646.7,380.6 638.1,380.6 	"/>
	<path class="st4" d="M246.3,511.3c0-0.7,0-1.5-0.1-2.2l-4.2-0.4c-1.2-132.1-2-260.2,0.6-346.8c1.2,0.1,2.5,0.1,3.6,0.3
		c0.3-0.8,0.6-1.5,0.7-2.3c10.7,18,22.7,35.3,34.1,51.2l1-0.7c-11.6-16.2-23.8-33.9-34.7-52.2c0.2-1.2,0.2-2.3,0.1-3.5
		c-1.5-0.4-3.1-0.9-4.7-1.3c0.3-9.8,0.7-19,1.2-27.6h-14.8c1,7.9,1.9,16.5,2.8,25.6c-0.9,0-1.8-0.1-2.6-0.1c-0.4,2-0.7,4.1-1,6.1
		l0,0l-32.3,37l1,0.9l31.2-35.7c0,0.9-0.1,1.8-0.1,2.6c1.6,0,3.2-0.1,4.8-0.1c6.4,85.9,4.4,214.6,2.6,346.6H230
		c-0.1,1-0.2,2-0.1,3.1c-16.9,16.3-37.3,28.7-59.5,36.3c8.2,0.3,16.7,0.3,24.9-0.1c-0.9-0.4-1.3-1.4-1-2.3c0.4-0.9,1-1.6,1.8-2.2
		c11-9.5,22.5-18.4,34.2-26.9c0.3,1.3,0.6,2.6,0.9,3.8c1.8,0.2,3.5,0.2,5.3,0.2c-0.1,12,0.3,25.9-4.4,27.8c4.4,0.5,8.8,0.4,13.2-0.2
		c-3.8-2.8-4.8-16.1-5.6-27.6c1.8-0.2,3.5-0.2,5.4-0.3c0.3-1.2,0.6-2.3,0.7-3.5c11.8,8.5,23.3,17.4,34.2,26.9
		c0.8,0.6,1.4,1.3,1.8,2.2c0.3,0.9-0.1,1.9-1,2.3c8.2,0.4,16.7,0.4,24.9,0.2C283.4,540.1,263.2,527.6,246.3,511.3z"/>
	<path class="st5" d="M155.2,201.5l24.3,237.7l135.3-1.9l5.4-206.8C265.9,217,210.8,207.3,155.2,201.5z"/>
	<path class="st4" d="M326.5,220.8c1.9,1.3-3.6,9.8-6.4,9.8c-55-8.8-110-20.3-164.9-29.1c-2.6,0.3-4.4-13.9-1.8-14.2
		C213.1,192.9,271.9,203.7,326.5,220.8z M186.9,458.6c41.5-9.7,84-15.1,126.6-15.9c1.9,0,2.8-5.1,1.2-5.5
		c-44.9-6-90.5-5.3-135.3,1.9C174.5,441,181.9,460.5,186.9,458.6z"/>
	<path class="st6" d="M300.5,428.2c-19.4-3.2-39-4.9-58.6-5c-9.6,0-19.3,0.3-28.8,0.9l-7.2,0.6l-7.2,0.7l-7.2,0.9l-7.8,1
		c-1-9.1-1.9-18.1-2.9-27.2s-1.8-17.7-2.6-26.6c-1.8-17.7-3.4-35.4-5.1-53.2c-3.4-35.5-6.9-71.5-11-108.5c4.7,37,8.6,73,12.3,108.5
		s7,70.3,10.5,105.4l6.4-0.9l7.2-0.7l7.2-0.6l7.2-0.4c9.6-0.6,19.3-0.7,28.9-0.6C261.5,422.8,281.1,424.7,300.5,428.2z"/>
	<path class="st7" d="M308.1,218.9c-24.7-6-48.5-10.8-72.5-14.8s-48-7.3-73.4-9.8c24.7,1.5,49.4,4.2,73.8,8.3
		C260.3,206.8,284.4,212.2,308.1,218.9z"/>
	<path class="st7" d="M304.8,439c-20.8-0.7-40.5-1.6-60.3-1s-39.5,2.5-59.5,7.9c19.9-6.4,39.9-8.8,59.7-9.4S284.3,437.2,304.8,439z"
		/>
	<polygon class="st8" points="304.3,541.1 306.8,500.5 324.3,506.4 318.6,547.8 303.6,542.5 	"/>
	<path class="st7" d="M322,540.2c0,0-13.6,3.4-18.4-6.1l-33.6,11.7l54.1,8.2L322,540.2z"/>
	<polygon class="st3" points="269.2,550.4 323.5,558.6 324,553.9 270,545.7 	"/>
	<path class="st7" d="M344.8,351l-0.9,2.6c-9.3,15.8-17,32.4-23,49.7l-15.1,43.4c-1.6,4.5-2.6,9.1-2.9,13.9l-5.5,64l30,2.2l7.6-64.5
		l35.4-68.7l-1.9-40.2L344.8,351z"/>
	<polygon class="st8" points="406.2,529.9 384.6,496 402,489.7 421.6,526.3 406.5,531.5 	"/>
	<path class="st7" d="M419.8,518.1c0,0-8.9,11.3-18.3,6.6l-20,30.3l48-27.2L419.8,518.1z"/>
	<polygon class="st3" points="383.9,559.2 431.8,532 429.5,527.8 381.5,555.1 	"/>
	<path class="st7" d="M353.7,389.2l6.5,64.7c0.3,3,1.1,6,2.3,8.8l26.9,59.8l26.9-15.2l-23.2-54.1l1-46.8c0,0,2.6-42.7-11.1-58.9
		l-25.8,4.2L353.7,389.2z"/>
	<polygon class="st8" points="293.2,311.9 305.9,324.2 300.8,332.5 287.4,317.9 	"/>
	<path class="st8" d="M293,311.9v-15.5c0-0.8-0.6-1.4-1.3-1.6l0,0c-0.8-0.2-1.7,0.3-1.9,1.1l0,0l-1.2,4.2l-10-10.8
		c-0.7-0.7-1.8-0.8-2.5-0.1c-0.2,0.1-0.3,0.3-0.4,0.5l-3.4,6.1c-0.3,0.5-0.3,1.1,0,1.6c1.8,3.7,8.9,17.8,14.9,20.5L293,311.9z"/>
	<path class="st9" d="M281.4,308.4"/>
	<path class="st9" d="M285.6,300.2"/>
	<path class="st10" d="M350.5,286.3c0,0,3.4,7.6-12.7,46.4c0,0-8.8,16.1-12.7,16.7c-6.3,0.9-23.8-8.6-37.3-27.9l10.1-7.5l19.7,11.4
		l11.6-30C329.3,295.3,336,275.4,350.5,286.3z"/>
	<path class="st11" d="M322,334.2"/>
	<path class="st11" d="M317.8,325.2"/>
	<path class="st10" d="M366.9,273.8l26.5,11.7c1.8,0.9,3,2.8,2.8,4.8l-6.6,68.9c0,0-26.6,7.9-50.4,3.1l-5-70.9
		c-0.3-2.1,0.4-4.2,2-5.5l17-11.9L366.9,273.8z"/>
	<path class="st12" d="M337.6,332.7"/>
	<path class="st12" d="M339,291.8"/>
	<polygon class="st8" points="365.4,341.1 383,340.8 385.4,350.3 365.5,349.6 	"/>
	<path class="st8" d="M365.7,340.6l-11.1-11c-0.6-0.5-1.4-0.6-2-0.1l0,0c-0.7,0.5-1,1.4-0.6,2.2l2.2,3.8l-9.6,1.2
		c-1,0-1.8,0.8-1.8,1.8c0,0.2,0,0.4,0.1,0.5l2,6.7c0.1,0.6,0.6,1,1.2,1.2c3.8,1.3,13.8,4.5,19.9,2L365.7,340.6z"/>
	<path class="st10" d="M394.4,285.6c0,0,7.6,3.4,21.4,41.4c0,0,5.1,14.6,2.6,17.4c-4.1,4.5-24.6,11.7-47.4,6.3l-0.3-12.4l25.1-3.8
		l-11.3-29C384.6,305.6,376.4,286.9,394.4,285.6z"/>
	<path class="st11" d="M395.8,334.5"/>
	<path class="st11" d="M388.7,353.3"/>
	<path class="st8" d="M349.9,247.6c0.2,3.2-2.2,6-5.4,6.3h-0.2c-3.3,0.1-6.1-2.5-6.1-5.9c-0.2-3.2,2.2-6,5.4-6.3h0.2
		C347.1,241.7,349.8,244.3,349.9,247.6z"/>
	<path class="st8" d="M352.6,261.9l-0.4,11c-0.1,5.1,2.8,7.9,7.6,7.9l0,0c4.1,0.1,10.1-2.8,10-7.2v-18.3L352.6,261.9z"/>
	<path class="st13" d="M352.4,271.4c0,0,14.3-0.3,18.3-13.5c1.3-4.1-18,2.3-18,2.3L352.4,271.4z"/>
	<path class="st8" d="M357,266.3L357,266.3c-8.2-0.1-15-7.2-15-14.1v-14.7c-0.2-8.6,6.5-15.8,15.1-16.3l0,0
		c8.7-0.4,17.5,6.5,17.9,15.4l-0.1,11.5C374.9,258,366.9,266.1,357,266.3z"/>
	<path class="st14" d="M356.5,254.6"/>
	<path class="st14" d="M349.5,254"/>
	<path class="st4" d="M346.4,213.7c3.2-1.2,11.4-2.3,12.7,4.8c8-0.3,20.8,0.4,21.8,7.5c1.5,10.2-6.3,20-6.3,20l-2,0.9
		c0,0-5.1-2.9-3.1-15.1c0,0-18.7,3.7-27.2-1.5S336.8,217.3,346.4,213.7z"/>
	<path class="st8" d="M382.3,248c0.1,3.2-2.5,5.9-5.7,6c-3.2,0.1-5.9-2.5-6-5.7c-0.1-3.2,2.5-5.9,5.7-6c3.2-0.1,5.9,2.3,6,5.5
		c0,0,0,0,0,0V248z"/>
	<path class="st8" d="M353,273.3l-4.4,3.1c0,0-2.6,7.3,9.8,8.2s16.1-8,16.1-8l-8.8-4.5L353,273.3z"/>
	<line class="st15" x1="438" y1="394.4" x2="438" y2="554.4"/>
	<rect x="376.2" y="390.2" class="st10" width="122.7" height="8.5"/>
	<path class="st16" d="M410.3,390.2h60.5c1.9-0.2,3.3-1.8,3.2-3.7l0,0c0.1-1.9-1.3-3.6-3.2-3.7h-60.5c-1.9,0.2-3.3,1.8-3.2,3.7l0,0
		C407,388.4,408.4,390,410.3,390.2z"/>
	<path class="st16" d="M409.9,387.1c0.2,0,0.3,0,0.4-0.2c0.5-0.3,0.6-1,0.3-1.5l-30.7-53.2c-0.3-0.4-0.8-0.6-1.3-0.3c0,0,0,0,0,0
		l0,0c-0.5,0.3-0.6,1-0.3,1.5l30.7,53.2C409.2,387,409.5,387.1,409.9,387.1z"/>
	<path class="st17" d="M538.1,417l-63.7,1.8c-10.8,0.4-18.9,11-17.4,22.7l0,0c1.3,9.7,9.1,17,18,17h75.9c0,0,27.3-10.5,18.7-36.1
		L538.1,417z"/>
	<path d="M471.3,543.4l-10.7,5.7c-1.2,0.7-1.8,2-1.5,3.4c0.3,1,1.2,1.9,3.5,1.9c5.3,0.2,28.7-3.7,28.7-3.7v2.6l10.8-1.3
		c0,0,0.7-13.5-2.5-15.4L471.3,543.4z"/>
	<path class="st18" d="M488.8,530l-17.3,13.5c0,0,1.9,5.1,10,1.8c8.1-3.4,18.3-8.6,18.3-8.6l-1.5-8L488.8,530z"/>
	<polygon class="st18" points="500.1,536.5 489.7,485.9 472.5,487.7 486.9,534.8 	"/>
	<polygon class="st17" points="457,441.5 471.4,524.6 504.3,524.6 491.6,442.8 	"/>
	<path class="st17" d="M535,417l-48.1,1.8c-10.8,0.4-18.9,11-17.4,22.7l0,0c1.3,9.7,9.1,17,18,17h75.9c0,0,27.3-10.5,18.7-36.1
		L535,417z"/>
	<path d="M484.1,543.4l-10.7,5.7c-1.2,0.7-1.8,2-1.5,3.4c0.3,1,1.2,1.9,3.5,1.9c5.3,0.2,28.7-3.7,28.7-3.7v2.6L515,552
		c0,0,0.7-13.5-2.5-15.4L484.1,543.4z"/>
	<path class="st8" d="M501.6,530l-17.3,13.5c0,0,1.9,5.1,9.9,1.8s18.3-8.6,18.3-8.6l-1.5-8L501.6,530z"/>
	<polygon class="st8" points="512.7,536.5 502.3,485.9 485,487.7 499.7,534.8 	"/>
	<polygon class="st17" points="469.7,441.5 484,524.6 516.9,524.6 504.2,442.8 	"/>
	<rect x="554.3" y="467" class="st19" width="10.7" height="61.9"/>
	<polygon class="st19" points="562.4,520.6 591.9,535.1 591.5,539.2 560.6,528.5 	"/>
	<polygon class="st19" points="557.4,520.6 527.9,535.1 528.3,539.2 559,528.5 	"/>
	<ellipse class="st20" cx="590.6" cy="546.5" rx="7" ry="7.6"/>
	<ellipse class="st20" cx="527.9" cy="546.5" rx="7" ry="7.6"/>
	<path class="st10" d="M531.1,471.2h59.2c3.4-0.1,6.1-3,6-6.4c0,0,0,0,0,0l0,0c0.1-3.4-2.6-6.3-6-6.4c0,0,0,0,0,0h-59.2
		c-3.4,0.1-6.1,3-6,6.4c0,0,0,0,0,0l0,0C525,468.2,527.6,471.1,531.1,471.2C531.1,471.2,531.1,471.2,531.1,471.2L531.1,471.2z"/>
	<path class="st21" d="M538.6,342.9l-25.3,37c-3.8,5.6-3.3,13,1.3,18l0,0c4.5,4.8,12,5.1,16.9,0.7c0,0,0,0,0,0
		c0.8-0.7,1.4-1.5,2-2.4l22.7-33.2L538.6,342.9z"/>
	<path class="st8" d="M491.5,361.8c0,0-4.5-9.2-12.3-11.4c-6-1.6-11,8.2-12.9,12.6c-0.5,1-0.1,2.1,0.9,2.6h0.1l0,0
		c0.6,0.1,1.2-0.1,1.6-0.6l2-3.1c0,0-0.4,6.6,4.8,6s6.9-2.8,6.9-2.8l5.8,4.4L491.5,361.8z"/>
	<polygon class="st22" points="527.7,380.5 490.9,353.6 481.1,369.5 519.1,401.3 	"/>
	<path class="st22" d="M537.5,334.9c0,0,16.5,7,28.4,31.9s16.4,55.7,16.4,55.7s-21.9,6.6-47.2-5.3l-8.9-31c0,0-7.9-9.9,0-41.1
		L537.5,334.9z"/>
	<path class="st8" d="M482.8,371.7c0,0-6.3-7.8-14.2-7.8c-6.1,0-8.9,10.8-9.9,15.6c-0.3,0.9,0.3,1.9,1.2,2.1c0,0,0,0,0,0l0.4,0.1
		l0,0c0.6-0.1,1.2-0.4,1.5-1l1.5-3.5c0,0,0.9,6.6,5.9,4.5s6.1-4.5,6.1-4.5l6.6,2.6L482.8,371.7z"/>
	<polygon class="st22" points="520.6,382.9 478.9,365.9 472.9,384 516.6,405.2 	"/>
	<path class="st22" d="M535.3,347L510,384c-3.8,5.6-3.3,13,1.3,18l0,0c4.5,4.8,12,5.1,16.9,0.7c0.8-0.7,1.4-1.5,2-2.4l22.7-33.2
		L535.3,347z"/>
	<path d="M516,317.9l-11.1,0.4c-6,6.7-3.7,19.7-3.7,19.7l18.1-5.7L516,317.9z"/>
	<polygon class="st8" points="514.7,327.4 526.1,345.3 537.5,334.9 520.9,308.9 	"/>
	<polygon class="st23" points="521.2,336.9 521.1,324.8 516.2,329.3 	"/>
	<path class="st8" d="M500.1,291.2c0,0-7.6,4-5.1,14.9c0,0,1.9,7.9,4.7,19.3c1.5,6,7.8,9.2,12.7,6.3c3.6-2,6.6-4.8,8.9-8.2l3.4-6.1
		c7.3-16.4-8-34.1-23.4-26.8C500.9,290.9,500.5,291.1,500.1,291.2z"/>
	<path class="st8" d="M498.9,317l-2.7,4.8c-0.3,0.7,0.1,1.5,0.9,1.3l3.7-0.7L498.9,317z"/>
	<path class="st24" d="M503.2,323.5"/>
	<path class="st24" d="M500.4,325.5"/>
	<path d="M515.9,307.3c0,0-2.3-27.6-20.3-10.5c0,0,4.2-16.8,25-14c5,1,9.3,4.2,11.6,8.8c3.1,6.9,1,14.2-1.9,27.5l-9.4-6.6
		C519.4,310.5,517.7,308.8,515.9,307.3z"/>
	<path d="M520.6,297.5l-1.3,12.1c-29.2-0.7-20.6-18.1-20.6-18.1S518.4,277.7,520.6,297.5z"/>
	<polygon points="508.4,306.8 513.8,311.8 516.6,303.2 	"/>
	<path d="M502.9,291.8c0,0-8.8,4.5-8.2,11.9c0,0-9.4-5.9,4.7-13.9C507.7,285,502.9,291.8,502.9,291.8z"/>
	<path d="M519.1,313c0,0,5.3,12.6,5.3,17.7l22.1-8.3c0,0-6.4-7.3-8.5-13.7c-1.6-5.1-2.3-17.8-12-23.5l0.4,16.8L519.1,313z"/>
	<path class="st8" d="M524.2,308.6c1.1,3-0.3,6.4-3.2,7.8c-2.9,1-6.1-0.4-7.1-3.3c0,0,0,0,0,0c0-0.1-0.1-0.1-0.1-0.2
		c-1.1-3,0.3-6.4,3.2-7.8c2.8-1.1,5.9,0.3,7,3.1C524.1,308.3,524.2,308.4,524.2,308.6z"/>
	<path class="st24" d="M519.5,307.8"/>
	<path class="st24" d="M517.2,312.7"/>
	<path class="st8" d="M537.5,334.9c0,0-3.5,11.1-12.6,15.3l2.6-12.4L537.5,334.9z"/>
	<path class="st25" d="M557.8,279.5l9.7,5.6l-0.7,5.7l7.6,6.9l-10.1,11.6l-23.4-16c0,0,6.3-19.9,7.8-19.5
		C550.1,274.5,557.8,279.5,557.8,279.5z"/>
	<polygon class="st26" points="544,273.9 548.1,303.5 564.4,303.9 568.4,273.9 	"/>
	<polyline class="st27" points="540.4,275 571.3,275 571.3,271.8 568.1,271.8 568.1,266.9 543.4,270.3 543.2,271.8 540.4,271.8 
		540.4,275 	"/>
	<path class="st8" d="M542.7,294c-5.7,0.4,1.5-13.6,1.5-13.6s15.3-0.9,15.5-0.1c0.3,0.9-0.1,2-1.1,2.3c0,0,0,0,0,0h-0.1
		c-1.2,0.3-10.8,1.5-10.8,1.5s9.9,0.4,9.8,1.5c-0.3,1.5-1.5,1.6-4.4,2c-2.5,0.3-8,0.4-8,0.4s10.5,0.1,10.4,0.9s0.4,2.6-3.2,2
		C543.8,289.7,542.7,294,542.7,294z"/>
	<path class="st25" d="M567.4,281.5c0,0,3.7-6.7,8.2-6.4c0,0-5.4,6-6.1,10.1c-0.7,4.1-1,6.9-1,6.9h-2.3L567.4,281.5z"/>
	<path class="st4" d="M611.8,350.8c0,0-15.7,99.9-8.3,121.1c4.5,13.1,7.9,26.6,10.1,40.3l36.3-9.7c0,0-12-50-13.8-59.5
		s16.8-87.6,16.8-87.6L611.8,350.8z"/>
	<path class="st4" d="M628.9,357.6L646,518.2h34.7c0,0-11.3-169.9-9.2-171.4C673.5,345.4,628.9,357.6,628.9,357.6z"/>
	<path class="st7" d="M615.2,260.2c0,0-3.7,53.8-11.7,51.9c-8-1.9-29.4-15.9-29.4-15.9l-13,12.9c0,0,39.6,39.9,55.9,23.5
		C633.4,316.3,615.2,260.2,615.2,260.2z"/>
	<path class="st7" d="M626,545.3l-2.3-10.8l25.3-9.2l4,16.1l-1.5,0.2c-5.7,2.3-33.2,13.9-37.6,14.3C609,556.3,626,545.3,626,545.3z"
		/>
	<path class="st8" d="M686.1,387.7l-2.8,3.7c-1.3,2.2-2.8,4.3-4.5,6.1c-0.9,1-1.9,1.8-3.1,2.5c-1.5,0.8-3,1.5-4.5,2
		c-1.5,0.3-1.9,2-0.6,2.6c1.3,0.6,5.6-0.3,9.5-2.9c3.9-2.6,2.2,4.2,1.5,6.7c-0.7,2.5-2.2,10.4-1.5,11.3c1,1.2,2.6,0.4,3.2-2.2
		s2.8-10.1,4.2-9.7s-1.9,13.2-1.9,13.2s-1.2,2.6,0.4,3.1c3.1,0.9,5.5-13,5.7-14.3c0.2-0.9,1.8-0.6,1.5,0.4c-0.3,1-3.7,12.7-0.6,13.6
		c2.3,0.7,2.2-11.4,4.4-13.5c2.2-2-0.9,9.2,1.3,9.8c0.9,0.1,1.5,0.3,2.3-6.4s-0.4-25.7-0.4-25.7l-14.8,0.1"/>
	<path class="st8" d="M636.1,242c0.3-2.2-0.9-11.1-0.9-11.1s-9.1-0.6-9.9-8.8s-1-26.9-1-26.9l16.2-7.8l18.6,12l4.2,8.9l-5.6,21.2
		v10.7L636.1,242z"/>
	<path class="st28" d="M634.9,230.9c4.2-0.3,8.3-1.7,11.8-4c0,0-2.5,6-11.6,6L634.9,230.9z"/>
	<path class="st7" d="M662.7,217.3c-1.7,3.9-3.1,8-3.9,12.1c-1.3,2.2-1.8-4.8-1.8-4.8s-1.2-6.9-0.2-9.5c0,0,4.5,1.3,5.6-6.1
		c0.4-3.6-5.6-5.4-7.3-1l-3.8,0.3c0,0-0.3-13.9-9.1-11.4c0,0-6.4,3.5-10.2,1.3c-3.8-2.2-3.5-2.9-3.5-2.9s-1.9,3.6-6.7,1.3
		s-5.6-6.7-3.8-8.8c1-1.2,1.9-2.5,3.5-2.8c1.6-0.3,3.3,0.3,4.4,1.5c-1.2-1.6-0.3-4,1.5-5.1c1.9-1,4.1-1.1,6.1-0.3
		c1.9,0.8,3.7,1.9,5.3,3.2c1.4-3.1,4.6-5,8-4.7c3.3,0.3,6.2,2.6,7,5.9c2.2-2,5.3-2.5,8-1.5c2.6,1.2,4.4,3.5,5,6.3
		c0.3,2.7-0.1,5.4-1.2,7.9c2.2-1,4.8-0.4,6.3,1.5c1.3,1.8,1.5,4.2,0.4,6.1c-1.2,1.9-2.9,3.5-5,4.4c1.6,1.1,2,3.3,1,5
		c-1.1,1.7-3.2,2.4-5.1,1.9"/>
	<path class="st28" d="M656.7,212.4c0.1,0.1,0.2,0.1,0.3,0.1c0.1,0.1,0.6,0.1,1,0.1c1-0.5,1.7-1.5,1.8-2.6c0-0.6-0.1-1.2-0.3-1.8
		c-0.1-0.4-0.4-0.8-0.9-1c-0.3-0.1-0.7,0-0.9,0.3c-0.1,0.1-0.1,0.2-0.2,0.3c-0.1-0.1-0.2-0.3-0.1-0.4c0-0.1,0.1-0.3,0.3-0.4
		c0.2-0.1,0.5-0.2,0.7-0.1c0.6,0,1,0.6,1.3,1.2c0.3,0.6,0.4,1.3,0.3,1.9c0,1.3-0.9,2.5-2.2,2.9c-0.4,0.1-0.8,0-1.2-0.3L656.7,212.4z
		"/>
	<path class="st26" d="M693.8,263.4c0,0-6.1-25.9-36.3-23.2l-27.5,2.5c0,0-18.9,7.2-16.2,27.6s3.9,39,3.2,42.5s-7.3,35.7-5.3,37.9
		c19.9,21.8,70.5-13,70.5-13L693.8,263.4z"/>
	<path class="st7" d="M657.5,240.3l7,151.6l20.9-10.2l-2.2-134.5C683.1,247.2,677.6,238.4,657.5,240.3z"/>
	<path class="st7" d="M701.5,390.2l-7.2-126.6c-2.2-7.8-7-13.7-13.2-18.7v147.1L701.5,390.2z"/>
	<path class="st7" d="M635.8,242c0,0-18.7,8.5-17.8,36.9c0.9,28.4-11.3,108.9-11.3,108.9l-15.6-2.9c0,0,18.1-76.2,18.9-89.6
		s-0.6-32.9,9.7-46.2C626.7,239.7,635.8,242,635.8,242z"/>
	<path class="st29" d="M657.6,240.3c0,0,6.1,12.4,5.6,17.1c-0.6,4.7-2.8,14.2-2.8,14.2s4.5,2.5,4.2,4.7c-0.3,2.2-4.7,24.1-4.7,24.1
		L657.6,240.3z"/>
	<path class="st29" d="M677.3,271.2c0.3,1.5,0.5,3.1,0.6,4.7c0.3,3.1,0.6,7.5,0.7,12.9c0.4,11,0.9,26,1.2,42.7
		c0.3,16.7,0.4,31.7,0.7,42.7c0.2,5.4,0.2,9.8,0.3,12.9c0.1,1.6,0.1,3.1,0,4.7c-0.3-1.5-0.5-3.1-0.6-4.7c-0.3-3.1-0.6-7.5-0.7-12.9
		c-0.4-11-0.9-26-1.2-42.7c-0.3-16.7-0.4-31.7-0.7-42.7c-0.2-5.4-0.2-9.8-0.3-12.9C677.1,274.3,677.1,272.7,677.3,271.2z"/>
	<path class="st8" d="M625.7,533.8c0.3-0.2-6.3-23-6.3-23l22.2-5.8l4.7,21.5L625.7,533.8z"/>
	<rect x="651.3" y="518.2" class="st8" width="25.6" height="18.1"/>
	<path class="st7" d="M649.2,546.1l2.3-10.9h27.3l-2.9,16h-1.5c-6.3,0.3-36.7,1.8-41,0.6C629,550.6,649.2,546.1,649.2,546.1z"/>
	<path class="st7" d="M805.3,213.7c1.9,6.1,3.8,12.4,5.7,18.6c0.4,0.8,0.5,1.7,0.4,2.6c0,2.6-2.6,4.7-5.3,5.1
		c-2.7,0.3-5.5,0-8.1-0.9c-0.7,2.6-3.9,3.8-6.7,4.2c-12.5,2.3-25.4,0.8-37-4.5c4.9-6.8,8.9-14.2,12-22.1l29.3,1.3
		c1.7,0.2,3.5,0.1,5.1-0.4c1.7-0.5,2.9-1.9,3.2-3.7"/>
	<path class="st28" d="M691.9,295.4l-2.9-3.2c-1.8-1.6-3.5-3.3-5-5.3c-0.8-1-1.3-2.1-1.8-3.2c-0.5-1.4-0.9-2.9-1-4.4
		c0-0.8-0.7-1.5-1.5-1.5c0,0,0,0,0,0c-0.4,0-0.7,0.2-1,0.4c-0.7,1-1,4.7,0.7,8.8s-4.5,0.9-6.9-0.3s-9.7-4.2-10.7-4
		c-1.3,0.6-0.9,2.2,1.5,3.2c2.3,1,9.2,4.8,8.5,6s-12.4-4.9-12.4-4.9s-2.3-1.6-3.1-0.3c-1.5,2.3,11.5,7.8,12.7,8.3
		c0.9,0.3,0.1,1.6-0.7,1.2s-11.6-6.1-13.2-3.8c-1.2,1.9,10.7,4.5,12.1,6.9c1.5,2.3-8.8-2.9-9.8-1.2c-0.4,0.7-0.6,1.2,5.7,3.5
		c6.6,2.3,25.2,5.7,25.2,5.7l3.1-12.4"/>
	<path class="st8" d="M744.7,266.2c0,0-10.7,29.8-13.9,30.1c-22.4,2-46.8-7.5-46.8-7.5l-6.1,16.8c0,0,63.6,27.5,77.2,1
		c14.5-28.2,13.8-32.6,13.8-32.6L744.7,266.2z"/>
	<path class="st26" d="M746.2,434.8c11.4,50.6,86.3,97.8,86.3,97.8l12.7-15.2c0,0-60.3-52-62.7-75.2s17.4-59.4,17.4-59.4l-20.8-8.5
		L746.2,434.8z"/>
	<path class="st8" d="M771.5,250.1c0.4-2-0.4-10.8-0.4-10.8s-8.2-0.9-8.8-8.8c-0.6-7.9,0-26.2,0-26.2l15.1-7.1l16.5,12.1l-2.5,39.6
		L771.5,250.1z"/>
	<path class="st7" d="M792.5,215.4c0,0-13.5-1.2-15.8-13l-14.6,13c0,0-4.4-8.8,3.7-17c8-8.2,13.6-6.4,16.8-6.4
		c10.8,1.2,19.8,9,22.4,19.6c0.3,1.2,0.6,4.1,0.7,5.5L792.5,215.4z"/>
	<path class="st28" d="M771,239.3c3.9-0.2,7.6-1.4,10.8-3.5c0,0-2.5,5.9-10.7,5.6L771,239.3z"/>
	<path class="st30" d="M754.1,339.4c0.1,2.3,0.4,4.5,1,6.7l57.9,16.2c0,0,4.1-25.4-6.4-39.5c-4.8-6.4-3.8-15.6-1.8-23.4l6.9-26.6
		l-9.1-25l-36.5,2.3c0,0-21.2-2-28.5,25l13.6,19.7l0.1,7.5L754.1,339.4z"/>
	<path class="st26" d="M810.7,329.5c0.6,0,11.1,22.8,1.6,36.4c-0.9,1.3-3.1,4.4-6,8.8c-14,20.9-46.1,70-47.2,77.2
		c-1.3,8.6-27.2,100.3-27.2,100.3l-19.3-2.9l15.8-103.8l25.7-105.9L810.7,329.5z"/>
	<path class="st7" d="M777.2,201.4c0,0-2.9,5.6-1.8,9.8l-13.2,3.2C762.3,214.5,759.3,198.5,777.2,201.4z"/>
	<path class="st7" d="M805.8,216c0,0,1.6,18.3-14.3,21.5l1-21.9L805.8,216z"/>
	
		<linearGradient id="SVGID_2_" gradientUnits="userSpaceOnUse" x1="1056.0751" y1="451.8368" x2="987.2451" y2="474.8868" gradientTransform="matrix(-1 7.000000e-02 -7.000000e-02 -1 1756.55 674.43)">
		<stop  offset="0" style="stop-color:#FFFFFF"/>
		<stop  offset="0.23" style="stop-color:#FFFFFF;stop-opacity:0.77"/>
		<stop  offset="1" style="stop-color:#FFFFFF;stop-opacity:0"/>
	</linearGradient>
	<polygon class="st31" points="770.8,294.7 723.2,233.6 634,272.6 670,305.9 710.7,312.4 	"/>
	<polygon class="st32" points="745.8,300.8 713.1,314.1 659.9,315.3 634,272.6 688.9,269.1 712.5,310.3 745.6,297.9 	"/>
	<path class="st33" d="M802.6,247.7"/>
	<polygon class="st30" points="739.9,269.5 730.8,291.2 751.3,301.1 753.2,282.1 	"/>
	<polygon class="st34" points="796.5,248 793,244.1 778.2,247.7 780,252 	"/>
	<polyline class="st25" points="779.8,251.7 774,262.8 773.8,251.7 774.4,248.3 778.4,248.3 779.8,251.7 	"/>
	<polygon class="st34" points="774,252 774.7,247.7 771,246.3 766.8,250.1 	"/>
	<path class="st35" d="M747.8,292.8"/>
	<path class="st34" d="M751.5,301.3c0.2-0.5,0.3-1,0.3-1.5c-0.1-1.4-0.8-2.7-1.8-3.7c-1-1.3-2.8-2.6-3.1-4.7
		c-0.2-1.1-0.1-2.2,0.3-3.3c0.4-1,1.1-2,2-2.6c0.9-0.6,2-1,3.1-1h0.3v-0.3c0.6-4.1,1.3-7.9,1.6-10.5c0.3-1.4,0.2-2.9-0.2-4.2
		c-0.2,1.4-0.4,2.8-0.4,4.2c-0.3,2.6-1.2,6.3-1.9,10.5l0.4-0.4c-3.5,0-6.3,2.8-6.3,6.3c0,0,0,0,0,0.1c0,0.5,0.1,1.1,0.2,1.6
		c0.3,1.1,0.8,2.1,1.5,2.9c0.7,0.7,1.3,1.5,1.9,2c0.9,0.9,1.6,2,1.9,3.2C751.6,300.7,751.3,301.3,751.5,301.3z"/>
	<path class="st34" d="M751.2,272.8c-0.2,0.1,0.3,1.2,0.9,2.3c0.6,1.2,0.9,2.3,1.2,2.3c0.3,0,0.3-1.3-0.3-2.6
		S751.3,272.6,751.2,272.8z"/>
	<path class="st34" d="M730.1,291.2c3.3,2.1,6.9,3.9,10.5,5.4c3.6,1.7,7.2,3.1,11,4.2c0.1-0.3-4.7-2.3-10.7-5S730.3,291,730.1,291.2
		z"/>
	<path class="st34" d="M731.3,288.1c6.1,3.8,12.5,7,19.2,9.8c-3-2-6.1-3.8-9.4-5.3C737.9,290.8,734.7,289.3,731.3,288.1z"/>
	<path class="st34" d="M758.8,273.5c0,0.3,1.2,0.4,2.8,0.6c1.6,0.1,2.8,0,2.8-0.3s-1.2-0.4-2.8-0.6
		C759.9,273,758.8,273.2,758.8,273.5z"/>
	<path class="st34" d="M758.3,274.5c0,0.3,1.3,0.7,3.2,1.2c1.1,0.4,2.2,0.5,3.4,0.4c0-0.3-1.3-0.7-3.2-1.2
		C759.7,274.5,758.3,274.2,758.3,274.5z"/>
	<path class="st7" d="M710.8,549.1c0,0-17,4.4-12.7,5.7s33.6-1.9,33.6-1.9l1-3.2L710.8,549.1z"/>
	<polygon class="st7" points="731.7,553.2 737.6,537.4 711.7,537.4 710.8,549.3 	"/>
	<path class="st7" d="M832.6,533.6c0,0-4.2,16.5-1.2,13.5c3.1-3.1,14.8-29.4,14.8-29.4l-2.5-2.3L832.6,533.6z"/>
	<polygon class="st7" points="846.2,517.7 834.9,505.1 822.4,527 832.6,533.6 	"/>
	<path class="st7" d="M776,196.3c-1.4-0.1-2.8,0-4.1,0.4c-3.2,0.8-6.1,2.6-8.3,5c-2.2,2.4-3.8,5.3-4.5,8.5c-0.4,1.3-0.4,2.6-0.1,4
		c0.1,0,0.1-1.5,0.9-3.8c1.7-6.1,6.4-11,12.4-13C774.4,196.6,776,196.4,776,196.3z"/>
	<path class="st36" d="M667.1,293.1c0.5,1.8,2.2,2.9,4,2.6c1.5-0.4,2-2.5,1.3-4.4c-0.5-1.7-2.1-2.9-3.9-2.6
		C666.9,289.5,666.3,291.5,667.1,293.1z"/>
	<path class="st37" d="M785.5,340.4c0,0-0.7-73.1,1.9-78.7c0,0,2.8-13.8,13.6-14l-4.8,0.3c0,0-9.8-0.7-12.7,18.1
		c-2.9,18.9-2.6,74.9-2.6,74.9L785.5,340.4z"/>
	<path class="st37" d="M764.5,343.2c0,0-2.9-84-0.6-92.8h-2.9c0,0-2.6,7.2-2,27.3c0.3,12.1,0,65.5,0,65.5L764.5,343.2z"/>
	<path class="st25" d="M729.8,305.6c0,0-14.2,8.8-17.3,8.6c-3.1-0.1-12-0.3-11.1,0.9s11.1,2.8,11.1,2.8L729.8,305.6z"/>
	<path class="st8" d="M731,324.1c0,0,67.3,17.5,76.5-10.8c9.8-30,9.9-22.2,9.9-22.2l-21-19.7c0,0-11.3,34.7-14.5,35.4
		c-17.7,4.4-37.7,1.6-44.7,0.3c-0.7-0.6-1.8-1.5-2.8-2.3c-0.9-0.8-1.6-1.8-2.2-2.9c-0.7-1.3-1.3-2.7-1.6-4.1
		c-0.1-0.8-0.8-1.4-1.6-1.3c-0.4,0-0.8,0.3-1,0.6c-0.6,1-0.2,4.8,2.2,8.6c0,0-15.9,9.9-17.3,12.4L731,324.1z"/>
	<path class="st30" d="M802.6,247.7c0,0,15.3,2.8,15.9,26.3c0.3,14.3-2.9,28.4-9.2,41.2l-26.1-13.1L802.6,247.7"/>
	<path class="st34" d="M783.5,302.3c1.3,0.7,2.6,1.4,4,1.9c2.5,1,5.7,2.6,9.4,4.4c3.7,1.8,6.9,3.6,9.1,5c1.2,0.8,2.5,1.4,3.8,2
		c-1-1-2.2-1.9-3.5-2.5c-2.9-1.9-5.9-3.6-9.1-5.1c-3.1-1.6-6.2-3-9.5-4.2C786.3,303,784.9,302.5,783.5,302.3z"/>
	<path class="st34" d="M784.5,300.5c1.3,0.7,2.6,1.2,4,1.6c2.5,0.9,5.8,2.3,9.4,3.9s6.7,3.4,9.1,4.7c1.2,0.8,2.4,1.5,3.8,1.9
		c-1-0.9-2.2-1.8-3.4-2.5c-2.9-1.8-5.8-3.5-8.9-5c-3.1-1.4-6.3-2.7-9.5-3.8C787.4,301,786,300.7,784.5,300.5z"/>
	<path class="st34" d="M791.9,275.4c0.3,0,0.7-1.9,0.4-4.4c0-1.5-0.4-3-1.2-4.2c-0.3,0,0.2,2,0.3,4.4
		C791.6,273.5,791.7,275.4,791.9,275.4z"/>
	<path class="st34" d="M783.5,302.2c1-1.5,1.8-3,2.5-4.7c1.8-3.8,3.3-7.8,4.5-11.9c1.2-4.1,2.2-8.2,2.8-12.5
		c0.3-1.7,0.5-3.5,0.4-5.3c-0.5,1.7-0.9,3.4-1.2,5.1c-0.8,4.1-1.8,8.2-3.1,12.3c-1.5,4.7-3.1,8.9-4.2,11.8
		C784.1,300.1,783.3,302,783.5,302.2z"/>
</g>
</svg>
