<svg xmlns="http://www.w3.org/2000/svg" xmlns:xlink="http://www.w3.org/1999/xlink" viewBox="0 0 940 582"><defs><style>.cls-1{fill:url(#linear-gradient);}.cls-2{fill:#efefef;}.cls-10,.cls-13,.cls-15,.cls-16,.cls-25,.cls-3,.cls-36{fill:none;}.cls-3{stroke:#e1e0e0;}.cls-12,.cls-13,.cls-16,.cls-3,.cls-36{stroke-miterlimit:10;}.cls-4{fill:#fff;}.cls-5{fill:#004970;}.cls-6{fill:#f5f5f5;}.cls-7{fill:#aaa;}.cls-8{fill:#01384f;}.cls-9{fill:#facbb6;}.cls-10{stroke:#b66050;}.cls-10,.cls-15,.cls-25{stroke-linecap:round;stroke-linejoin:round;}.cls-10,.cls-12,.cls-13{stroke-width:0.7px;}.cls-11,.cls-12{fill:#4f4f4f;}.cls-12,.cls-13{stroke:#2a94f4;}.cls-14{fill:#eabeac;}.cls-15,.cls-25{stroke:#000;}.cls-15{stroke-width:0.46px;}.cls-16{stroke:#1f120c;stroke-width:1.91px;}.cls-17{fill:#020102;}.cls-18{fill:#ececec;}.cls-19{fill:#efbeab;}.cls-20{fill:#dad8de;}.cls-21{fill:#010102;}.cls-22{fill:#eca646;}.cls-23{fill:#082133;}.cls-24{fill:#efbeaa;}.cls-25{stroke-width:0.48px;}.cls-26{fill:#f6b69a;}.cls-27{fill:#cdeafb;}.cls-28{fill:#2a94f4;}.cls-29{fill:#f19180;}.cls-30{fill:#1e3058;}.cls-31{fill:#333;}.cls-32{opacity:0.34;isolation:isolate;fill:url(#linear-gradient-2);}.cls-33{fill:#a9ccea;}.cls-34{fill:#fcd286;}.cls-35{fill:#f9b751;}.cls-36{stroke:#ffebd4;stroke-width:0.1px;}.cls-37{fill:#f3efea;}.cls-38{fill:#008fc1;}</style><linearGradient id="linear-gradient" x1="30" y1="465" x2="970" y2="465" gradientUnits="userSpaceOnUse"><stop offset="0" stop-color="#01bec4"/><stop offset="1" stop-color="#257ce3"/></linearGradient><linearGradient id="linear-gradient-2" x1="1108.19" y1="181.47" x2="1039.36" y2="158.42" gradientTransform="matrix(-1, 0.07, 0.07, 1, 1768.15, 31.93)" gradientUnits="userSpaceOnUse"><stop offset="0" stop-color="#fff"/><stop offset="0.23" stop-color="#fff" stop-opacity="0.77"/><stop offset="1" stop-color="#fff" stop-opacity="0"/></linearGradient></defs><title>group-presentation-4</title><g id="Layer_2" data-name="Layer 2"><path class="cls-1" d="M577,230.77c36.61,13.23,85.22,23.52,127.51,3.47,37.16-17.62,37.06-43.3,72.49-55.32,49.83-16.92,114.64,11.94,148.38,54.15,8,10,27.93,35.89,28.92,71.63,1,36-12.62,61.53-21.55,80.89-31.38,68-66.58,144.29-22.87,210.9,27.53,42,64.59,46.85,59.68,74.48-7.51,42.2-103.58,84.93-195.68,85-118.4.13-141-70.28-257.29-71-90.44-.55-101.81,41.88-236.74,59.34-32.31,4.18-175.32,22.69-226.3-16.24-44.76-34.18,32-74,25.19-172.39C73.46,479.84,25.79,474.39,30.3,402,34.46,335.16,80,260.3,140.73,255.2c35.86-3,50.52,20.5,100.75,18.64,45.15-1.68,60.12-21.67,108.68-39.37,92.33-33.65,177.55-23.61,201.3-20,32.63,4.92,88.71,17.85,150.54,57.63" transform="translate(-30 -174)"/></g><g id="Layer_1" data-name="Layer 1"><rect class="cls-2" x="107.97" y="128.14" width="261.31" height="245.31"/><rect class="cls-3" x="118.1" y="138.27" width="261.31" height="245.31"/><polygon class="cls-4" points="147.53 372.38 107.63 372.38 329.37 128.14 369.42 128.14 147.53 372.38"/><polygon class="cls-4" points="369.28 164.94 369.28 174.44 188.69 373.45 180.07 373.45 369.28 164.94"/><rect class="cls-2" x="567.66" y="127.07" width="261.31" height="245.31"/><rect class="cls-3" x="578.86" y="137.2" width="261.31" height="245.31"/><polygon class="cls-4" points="607.6 371.31 567.72 371.31 789.32 127.07 829.2 127.07 607.6 371.31"/><polygon class="cls-4" points="830.04 163.87 830.04 173.38 649.46 372.38 640.83 372.38 830.04 163.87"/><path class="cls-5" d="M279,677.15a10.14,10.14,0,0,0-.15-2.2l-4.24-.43c-1.17-132.07-2-260.19.59-346.78,1.17.15,2.48.15,3.65.29a14.47,14.47,0,0,0,.74-2.34c10.67,18,22.67,35.25,34.07,51.19l1-.73c-11.56-16.23-23.84-33.93-34.66-52.21a14.23,14.23,0,0,0,.14-3.51c-1.46-.44-3.07-.88-4.68-1.32.29-9.8.73-19,1.17-27.64H261.87c1,7.9,1.9,16.53,2.78,25.59-.88,0-1.76-.14-2.63-.14-.44,2.05-.74,4.09-1,6.14h0l-32.32,37,1,.88,31.16-35.68c0,.87-.15,1.75-.15,2.63,1.61,0,3.22-.15,4.83-.15,6.43,85.85,4.38,214.56,2.63,346.63h-5.41a22.55,22.55,0,0,0-.15,3.07,160.15,160.15,0,0,1-59.53,36.27c8.19.3,16.68.3,24.87-.14a2,2,0,0,1-1-2.34,6.59,6.59,0,0,1,1.76-2.2c11-9.5,22.52-18.43,34.22-26.91.3,1.32.59,2.63.88,3.8,1.76.15,3.51.15,5.27.15-.15,12,.29,25.89-4.39,27.79a56.79,56.79,0,0,0,13.16-.15c-3.8-2.78-4.83-16.09-5.56-27.64,1.76-.15,3.51-.15,5.41-.29a30.42,30.42,0,0,0,.74-3.51c11.84,8.48,23.25,17.4,34.22,26.91a5.1,5.1,0,0,1,1.76,2.19,2,2,0,0,1-1,2.34c8.19.44,16.67.44,24.87.15A166.46,166.46,0,0,1,279,677.15Z" transform="translate(-30 -174)"/><path class="cls-6" d="M187.88,367.29,212.16,605l135.25-1.9,5.41-206.75A1184.9,1184.9,0,0,0,187.88,367.29Z" transform="translate(-30 -174)"/><path class="cls-5" d="M359.25,386.65c1.9,1.31-3.65,9.79-6.43,9.79-55-8.77-110-20.32-164.94-29.09-2.63.29-4.38-13.89-1.75-14.19C245.79,358.72,304.57,369.54,359.25,386.65ZM219.61,624.4a607,607,0,0,1,126.63-15.94c1.9,0,2.78-5.11,1.17-5.55a465.85,465.85,0,0,0-135.25,1.9C207.19,606.85,214.64,626.3,219.61,624.4Z" transform="translate(-30 -174)"/><path class="cls-7" d="M333.23,594a380.18,380.18,0,0,0-58.64-5c-9.65,0-19.3.29-28.8.87l-7.17.59-7.16.73-7.17.88-7.75,1c-1-9.07-1.9-18.13-2.92-27.2s-1.76-17.69-2.63-26.61c-1.76-17.69-3.37-35.38-5.12-53.22-3.36-35.53-6.87-71.5-11-108.5,4.68,37,8.63,73,12.29,108.5s7,70.33,10.52,105.42l6.44-.88,7.16-.73,7.17-.58,7.16-.44c9.65-.59,19.3-.73,28.95-.59A362.75,362.75,0,0,1,333.23,594Z" transform="translate(-30 -174)"/><path class="cls-8" d="M340.83,384.75c-24.71-6-48.54-10.82-72.52-14.77s-48-7.31-73.41-9.8a693,693,0,0,1,73.84,8.34A678.24,678.24,0,0,1,340.83,384.75Z" transform="translate(-30 -174)"/><path class="cls-8" d="M337.47,604.81c-20.77-.73-40.51-1.61-60.25-1s-39.47,2.49-59.51,7.9c19.89-6.43,39.92-8.77,59.66-9.36S317,603.05,337.47,604.81Z" transform="translate(-30 -174)"/><polygon class="cls-9" points="307.03 532.87 309.51 492.37 327.06 498.21 321.36 539.6 306.3 534.33 307.03 532.87"/><path class="cls-8" d="M354.72,706s-13.6,3.36-18.42-6.14l-33.63,11.7,54.1,8.19Z" transform="translate(-30 -174)"/><polygon class="cls-4" points="271.94 542.23 326.18 550.41 326.77 545.74 272.67 537.55 271.94 542.23"/><path class="cls-8" d="M377.53,516.78l-.88,2.63a274.13,274.13,0,0,0-22.95,49.72l-15.06,43.43a51.14,51.14,0,0,0-2.93,13.89l-5.55,64,30,2.2,7.6-64.49,35.39-68.72-1.9-40.21Z" transform="translate(-30 -174)"/><polygon class="cls-9" points="408.94 521.76 387.3 487.83 404.7 481.55 424.3 518.1 409.24 523.36 408.94 521.76"/><path class="cls-8" d="M452.54,683.91s-8.92,11.26-18.28,6.58l-20,30.27,48-27.2Z" transform="translate(-30 -174)"/><polygon class="cls-4" points="386.57 551 434.53 523.8 432.19 519.56 384.23 546.91 386.57 551"/><path class="cls-8" d="M386.45,555,393,619.72a29.88,29.88,0,0,0,2.34,8.77l26.9,59.81,26.91-15.21L425.93,619l1-46.79s2.64-42.7-11.11-58.93L390,517.51Z" transform="translate(-30 -174)"/><polygon class="cls-9" points="295.92 303.74 308.64 316.02 303.52 324.36 290.07 309.74 295.92 303.74"/><path class="cls-9" d="M325.68,477.74v-15.5a1.71,1.71,0,0,0-1.31-1.61h0a1.58,1.58,0,0,0-1.9,1.15v0L321.3,466l-9.95-10.82a1.8,1.8,0,0,0-2.54-.07,1.58,1.58,0,0,0-.38.51l-3.36,6.14a1.55,1.55,0,0,0,0,1.61c1.75,3.66,8.92,17.84,14.91,20.47Z" transform="translate(-30 -174)"/><path class="cls-10" d="M314.07,474.23" transform="translate(-30 -174)"/><path class="cls-10" d="M318.31,466" transform="translate(-30 -174)"/><path class="cls-11" d="M383.23,452.15s3.37,7.61-12.72,46.36c0,0-8.77,16.08-12.72,16.66-6.29.88-23.83-8.62-37.28-27.92l10.08-7.46,19.74,11.4,11.56-30C362,461.07,368.76,441.19,383.23,452.15Z" transform="translate(-30 -174)"/><path class="cls-12" d="M354.72,500" transform="translate(-30 -174)"/><path class="cls-12" d="M350.48,491.05" transform="translate(-30 -174)"/><path class="cls-11" d="M399.61,439.58l26.47,11.69a4.84,4.84,0,0,1,2.77,4.83L422.27,525s-26.61,7.9-50.44,3.07l-5-70.92a6.23,6.23,0,0,1,2-5.55l17-11.85Z" transform="translate(-30 -174)"/><path class="cls-13" d="M370.37,498.51" transform="translate(-30 -174)"/><path class="cls-13" d="M371.68,457.56" transform="translate(-30 -174)"/><polygon class="cls-9" points="368.06 332.92 385.76 332.63 388.1 342.13 368.21 341.4 368.06 332.92"/><path class="cls-9" d="M398.44,506.4l-11.11-11a1.57,1.57,0,0,0-2.05-.14h0a1.65,1.65,0,0,0-.58,2.19l2.19,3.8-9.65,1.17a1.82,1.82,0,0,0-1.83,1.8,1.64,1.64,0,0,0,.07.54l2,6.73a1.58,1.58,0,0,0,1.17,1.17c3.8,1.31,13.75,4.53,19.89,2Z" transform="translate(-30 -174)"/><path class="cls-11" d="M427.1,451.42s7.6,3.37,21.35,41.38c0,0,5.12,14.62,2.63,17.4-4.09,4.54-24.56,11.7-47.38,6.29l-.29-12.43,25.15-3.8L417.3,471.31C417.3,471.45,409.11,452.74,427.1,451.42Z" transform="translate(-30 -174)"/><path class="cls-12" d="M428.56,500.26" transform="translate(-30 -174)"/><path class="cls-12" d="M421.4,519.12" transform="translate(-30 -174)"/><path class="cls-9" d="M382.65,413.41a5.85,5.85,0,0,1-5.39,6.27h-.17a6,6,0,0,1-6.14-5.85,5.85,5.85,0,0,1,5.39-6.27h.17A6,6,0,0,1,382.65,413.41Z" transform="translate(-30 -174)"/><path class="cls-9" d="M385.37,427.73l-.44,11c-.15,5.12,2.78,7.9,7.6,7.9h0c4.1.14,10.09-2.78,10-7.17V421.16Z" transform="translate(-30 -174)"/><path class="cls-14" d="M385.13,437.24s14.33-.29,18.28-13.45c1.32-4.1-18,2.34-18,2.34Z" transform="translate(-30 -174)"/><path class="cls-9" d="M389.73,432.09h0c-8.22-.15-15-7.2-15-14.11V403.29A16,16,0,0,1,389.88,387h0c8.67-.44,17.49,6.47,17.93,15.43l-.15,11.47A18.25,18.25,0,0,1,389.73,432.09Z" transform="translate(-30 -174)"/><path class="cls-15" d="M389.23,420.42" transform="translate(-30 -174)"/><path class="cls-15" d="M382.21,419.84" transform="translate(-30 -174)"/><path class="cls-5" d="M379.14,379.48c3.22-1.17,11.4-2.34,12.72,4.83,8-.29,20.76.44,21.79,7.45,1.46,10.24-6.29,20-6.29,20l-2.05.87s-5.11-2.92-3.07-15.06c0,0-18.71,3.66-27.19-1.46S369.49,383.14,379.14,379.48Z" transform="translate(-30 -174)"/><path class="cls-9" d="M415,413.84a5.85,5.85,0,1,1-6-5.7,5.76,5.76,0,0,1,6,5.52Z" transform="translate(-30 -174)"/><path class="cls-9" d="M385.72,439.14l-4.39,3.07s-2.63,7.31,9.8,8.19,16.08-8,16.08-8l-8.77-4.54Z" transform="translate(-30 -174)"/><line class="cls-16" x1="440.74" y1="386.25" x2="440.74" y2="546.23"/><rect class="cls-11" x="378.88" y="381.98" width="122.66" height="8.53"/><path class="cls-17" d="M443,556h60.53a3.55,3.55,0,0,0,3.22-3.73h0a3.55,3.55,0,0,0-3.22-3.74H443a3.55,3.55,0,0,0-3.22,3.74h0A3.55,3.55,0,0,0,443,556Z" transform="translate(-30 -174)"/><path class="cls-17" d="M442.6,552.9a.56.56,0,0,0,.44-.15,1.1,1.1,0,0,0,.29-1.46l-30.71-53.22a.94.94,0,0,0-1.31-.3h0a1.1,1.1,0,0,0-.29,1.47l30.7,53.22A.88.88,0,0,0,442.6,552.9Z" transform="translate(-30 -174)"/><path class="cls-18" d="M570.83,582.86l-63.75,1.76c-10.82.43-18.86,11-17.4,22.66h0c1.32,9.65,9.07,17,18,17h75.89s27.34-10.53,18.71-36.12Z" transform="translate(-30 -174)"/><path d="M504,709.21l-10.67,5.7a3,3,0,0,0-1.46,3.36c.29,1,1.17,1.9,3.51,1.9,5.26.15,28.66-3.65,28.66-3.65v2.63l10.82-1.31s.73-13.46-2.49-15.36Z" transform="translate(-30 -174)"/><path class="cls-19" d="M521.56,695.76,504.3,709.21s1.9,5.12,9.95,1.75,18.27-8.62,18.27-8.62l-1.46-8.05Z" transform="translate(-30 -174)"/><polygon class="cls-19" points="502.82 528.34 492.44 477.74 475.18 479.5 489.66 526.58 502.82 528.34"/><polygon class="cls-18" points="459.68 433.32 474.16 516.37 507.06 516.37 494.34 434.63 459.68 433.32"/><path class="cls-18" d="M567.76,582.86l-48.1,1.76c-10.82.43-18.87,11-17.4,22.66h0c1.31,9.65,9.06,17,18,17h75.89s27.34-10.53,18.72-36.12Z" transform="translate(-30 -174)"/><path d="M516.83,709.21l-10.67,5.7a3,3,0,0,0-1.46,3.36c.29,1,1.17,1.9,3.51,1.9,5.26.15,28.66-3.65,28.66-3.65v2.63l10.82-1.31s.73-13.46-2.49-15.36Z" transform="translate(-30 -174)"/><path class="cls-9" d="M534.28,695.76,517,709.21s1.9,5.12,9.94,1.75,18.28-8.62,18.28-8.62l-1.47-8.05Z" transform="translate(-30 -174)"/><polygon class="cls-9" points="515.39 528.34 505.01 477.74 487.76 479.5 502.38 526.58 515.39 528.34"/><polygon class="cls-18" points="472.4 433.32 486.73 516.37 519.63 516.37 506.91 434.63 472.4 433.32"/><rect class="cls-20" x="556.99" y="458.77" width="10.67" height="61.86"/><polygon class="cls-20" points="565.11 512.4 594.64 526.87 594.2 530.97 563.35 520.29 565.11 512.4"/><polygon class="cls-20" points="560.13 512.4 530.6 526.87 531.04 530.97 561.74 520.29 560.13 512.4"/><ellipse class="cls-21" cx="593.33" cy="538.28" rx="7.02" ry="7.6"/><ellipse class="cls-21" cx="530.6" cy="538.28" rx="7.02" ry="7.6"/><path class="cls-11" d="M563.83,637H623a6.19,6.19,0,0,0,6-6.39h0a6.19,6.19,0,0,0-6-6.4h-59.2a6.19,6.19,0,0,0-6,6.39h0a6.19,6.19,0,0,0,6,6.4Z" transform="translate(-30 -174)"/><path class="cls-22" d="M571.27,508.74l-25.29,37a14.52,14.52,0,0,0,1.31,18h0a11.93,11.93,0,0,0,16.86.66,12.26,12.26,0,0,0,2-2.42l22.66-33.19Z" transform="translate(-30 -174)"/><path class="cls-9" d="M524.19,527.6s-4.53-9.21-12.28-11.4c-6-1.61-11,8.19-12.87,12.57a1.94,1.94,0,0,0,.9,2.58l.12,0h0a1.71,1.71,0,0,0,1.61-.58l2.05-3.07s-.44,6.58,4.82,6,6.88-2.77,6.88-2.77l5.85,4.38Z" transform="translate(-30 -174)"/><polygon class="cls-23" points="530.45 372.32 493.61 345.42 483.81 361.35 521.83 393.08 530.45 372.32"/><path class="cls-23" d="M570.25,500.7s16.52,7,28.37,31.87S615,588.28,615,588.28s-21.93,6.58-47.23-5.26l-8.92-31s-7.89-9.94,0-41.09Z" transform="translate(-30 -174)"/><path class="cls-9" d="M515.56,537.55s-6.28-7.75-14.18-7.75c-6.14,0-8.92,10.82-9.94,15.64a1.74,1.74,0,0,0,1.22,2.14l.39.06h0a1.78,1.78,0,0,0,1.46-1L496,543.1s.88,6.58,5.85,4.54S508,543.1,508,543.1l6.58,2.63Z" transform="translate(-30 -174)"/><polygon class="cls-23" points="523.29 374.66 481.62 357.7 475.62 375.83 519.34 397.03 523.29 374.66"/><path class="cls-23" d="M568.06,512.83l-25.3,37a14.51,14.51,0,0,0,1.32,18h0a11.93,11.93,0,0,0,18.86-1.75l22.66-33.19Z" transform="translate(-30 -174)"/><path d="M548.75,483.74l-11.11.44c-6,6.72-3.65,19.74-3.65,19.74l18.13-5.71Z" transform="translate(-30 -174)"/><polygon class="cls-9" points="517.44 319.24 528.84 337.08 540.25 326.7 523.58 300.67 517.44 319.24"/><polygon class="cls-24" points="523.93 328.75 523.78 316.61 518.96 321.14 523.93 328.75"/><path class="cls-9" d="M532.82,457s-7.61,3.95-5.12,14.91c0,0,1.9,7.9,4.68,19.3,1.46,6,7.75,9.22,12.72,6.29a27.21,27.21,0,0,0,8.92-8.19l3.36-6.14c7.31-16.37-8-34.07-23.39-26.76A4.44,4.44,0,0,1,532.82,457Z" transform="translate(-30 -174)"/><path class="cls-9" d="M531.65,482.86,529,487.69c-.3.73.14,1.46.87,1.31l3.66-.73Z" transform="translate(-30 -174)"/><path class="cls-25" d="M535.89,489.29" transform="translate(-30 -174)"/><path class="cls-25" d="M533.11,491.34" transform="translate(-30 -174)"/><path d="M548.61,473.06s-2.34-27.63-20.33-10.52c0,0,4.24-16.82,25-14a16.32,16.32,0,0,1,11.55,8.77c3.07,6.87,1,14.18-1.9,27.49l-9.36-6.58A33.9,33.9,0,0,0,548.61,473.06Z" transform="translate(-30 -174)"/><path d="M553.29,463.27,552,475.4c-29.24-.73-20.62-18.13-20.62-18.13S551.09,443.53,553.29,463.27Z" transform="translate(-30 -174)"/><polygon points="511.15 298.62 516.56 303.6 519.34 294.97 511.15 298.62"/><path d="M535.6,457.56s-8.78,4.54-8.19,11.85c0,0-9.36-5.85,4.68-13.89C540.42,450.84,535.6,457.56,535.6,457.56Z" transform="translate(-30 -174)"/><path d="M551.83,478.77s5.26,12.57,5.26,17.69l22.08-8.34s-6.44-7.31-8.48-13.74c-1.61-5.12-2.34-17.84-12-23.54l.44,16.81Z" transform="translate(-30 -174)"/><path class="cls-9" d="M556.94,474.38a6.19,6.19,0,0,1-3.21,7.75,5.54,5.54,0,0,1-7.1-3.32,1.46,1.46,0,0,1-.07-.19,6.19,6.19,0,0,1,3.22-7.75,5.44,5.44,0,0,1,7,3.12C556.86,474.12,556.9,474.25,556.94,474.38Z" transform="translate(-30 -174)"/><path class="cls-25" d="M552.26,473.65" transform="translate(-30 -174)"/><path class="cls-25" d="M549.92,478.47" transform="translate(-30 -174)"/><path class="cls-9" d="M570.25,500.7s-3.51,11.11-12.58,15.35l2.64-12.43Z" transform="translate(-30 -174)"/><path class="cls-26" d="M590.57,445.28l9.65,5.56-.73,5.7,7.61,6.87L597,475,573.61,459s6.29-19.89,7.75-19.45C582.82,440.31,590.57,445.28,590.57,445.28Z" transform="translate(-30 -174)"/><polygon class="cls-27" points="546.68 265.72 550.78 295.26 567.15 295.7 571.1 265.72 546.68 265.72"/><polyline class="cls-28" points="543.13 266.79 574.06 266.79 574.06 263.59 570.86 263.59 570.86 258.71 546.1 262.07 545.95 263.59 543.13 263.59 543.13 266.79"/><path class="cls-9" d="M575.37,459.76c-5.71.44,1.46-13.6,1.46-13.6s15.35-.88,15.5-.15a1.8,1.8,0,0,1-1.07,2.31l-.1,0c-1.17.29-10.82,1.46-10.82,1.46s9.94.44,9.8,1.47c-.3,1.46-1.47,1.6-4.39,2-2.49.3-8,.44-8,.44s10.52.15,10.38.88.44,2.63-3.22,2.05C576.54,455.52,575.37,459.76,575.37,459.76Z" transform="translate(-30 -174)"/><path class="cls-26" d="M600.08,447.33s3.65-6.73,8.19-6.44c0,0-5.41,6-6.14,10.09s-1,6.88-1,6.88h-2.34Z" transform="translate(-30 -174)"/><path class="cls-5" d="M644.53,516.64s-15.65,99.86-8.34,121.07a246.82,246.82,0,0,1,10.09,40.35l36.27-9.65s-12-50-13.75-59.51,16.82-87.58,16.82-87.58Z" transform="translate(-30 -174)"/><path class="cls-5" d="M661.64,523.42,678.74,684H713.4s-11.26-169.91-9.21-171.37S661.64,523.42,661.64,523.42Z" transform="translate(-30 -174)"/><path class="cls-8" d="M647.89,426s-3.65,53.81-11.7,51.91S606.8,462,606.8,462l-13,12.87s39.63,39.92,55.86,23.54C666.17,482.13,647.89,426,647.89,426Z" transform="translate(-30 -174)"/><path class="cls-8" d="M658.71,711.11l-2.34-10.82,25.3-9.21,4,16.08-1.47.15c-5.7,2.34-33.19,13.89-37.57,14.33C641.75,722.08,658.71,711.11,658.71,711.11Z" transform="translate(-30 -174)"/><path class="cls-9" d="M718.81,553.55,716,557.21a36.31,36.31,0,0,1-4.53,6.14,13.15,13.15,0,0,1-3.07,2.49,28.89,28.89,0,0,1-4.54,2c-1.46.3-1.9,2-.58,2.64s5.56-.3,9.5-2.93,2.2,4.24,1.47,6.73-2.2,10.38-1.47,11.26c1,1.17,2.64.44,3.22-2.2s2.78-10.09,4.24-9.65-1.9,13.16-1.9,13.16-1.17,2.63.44,3.07c3.07.88,5.55-13,5.7-14.33.15-.87,1.76-.58,1.46.44s-3.65,12.72-.58,13.6c2.34.73,2.19-11.4,4.39-13.45s-.88,9.21,1.31,9.8c.88.14,1.46.29,2.34-6.44s-.44-25.73-.44-25.73l-14.81.14" transform="translate(-30 -174)"/><path class="cls-9" d="M668.81,407.85c.29-2.19-.88-11.11-.88-11.11s-9.06-.59-9.94-8.78-1-26.9-1-26.9l16.23-7.75,18.57,12,4.24,8.92-5.56,21.2v10.67Z" transform="translate(-30 -174)"/><path class="cls-29" d="M667.63,396.74a25.2,25.2,0,0,0,11.85-3.95s-2.49,6-11.56,6Z" transform="translate(-30 -174)"/><path class="cls-8" d="M695.41,383.14a58.89,58.89,0,0,0-3.94,12.13c-1.32,2.2-1.76-4.82-1.76-4.82s-1.17-6.87-.15-9.51c0,0,4.54,1.32,5.56-6.14.44-3.65-5.56-5.41-7.31-1l-3.8.29s-.29-13.89-9.07-11.4c0,0-6.43,3.51-10.23,1.31s-3.51-2.92-3.51-2.92-1.9,3.65-6.73,1.31-5.55-6.72-3.8-8.77c1-1.17,1.9-2.48,3.51-2.78a4.81,4.81,0,0,1,4.39,1.47c-1.17-1.61-.3-4,1.46-5.12a7.48,7.48,0,0,1,6.14-.29,19.44,19.44,0,0,1,5.26,3.21,8,8,0,0,1,8.05-4.68,7.84,7.84,0,0,1,7,5.85,7.69,7.69,0,0,1,8-1.46,8.78,8.78,0,0,1,5,6.29,14.74,14.74,0,0,1-1.17,7.89,5.39,5.39,0,0,1,6.29,1.47,5.86,5.86,0,0,1,.43,6.14,11.12,11.12,0,0,1-5,4.38,3.71,3.71,0,0,1,1,5,4.65,4.65,0,0,1-5.12,1.91" transform="translate(-30 -174)"/><path class="cls-29" d="M689.39,378.17a.44.44,0,0,0,.29.14c.14.15.58.15,1,.15a3.06,3.06,0,0,0,1.76-2.63,3.79,3.79,0,0,0-.3-1.76,1.56,1.56,0,0,0-.87-1,.82.82,0,0,0-.88.29.48.48,0,0,0-.15.29.63.63,0,0,1-.14-.44c0-.14.14-.29.29-.43a1,1,0,0,1,.73-.15c.58,0,1,.58,1.32,1.17a3,3,0,0,1,.29,1.9,3.21,3.21,0,0,1-2.2,2.93,1.26,1.26,0,0,1-1.16-.3Z" transform="translate(-30 -174)"/><path class="cls-27" d="M726.56,429.2S720.42,403.32,690.3,406l-27.49,2.48s-18.87,7.17-16.23,27.64,3.94,39,3.21,42.55-7.31,35.68-5.26,37.87c19.88,21.79,70.48-13,70.48-13Z" transform="translate(-30 -174)"/><path class="cls-8" d="M690.25,406.09l7,151.63,20.91-10.23L716,413C715.84,413,710.29,404.19,690.25,406.09Z" transform="translate(-30 -174)"/><path class="cls-8" d="M734.24,556l-7.16-126.63c-2.2-7.75-7-13.74-13.16-18.71V557.72Z" transform="translate(-30 -174)"/><path class="cls-8" d="M668.51,407.85s-18.72,8.48-17.84,36.85-11.26,108.93-11.26,108.93l-15.64-2.92s18.13-76.18,18.86-89.64-.59-32.9,9.65-46.2C659.44,405.51,668.51,407.85,668.51,407.85Z" transform="translate(-30 -174)"/><path class="cls-30" d="M690.3,406.09s6.14,12.43,5.55,17.11-2.78,14.19-2.78,14.19,4.54,2.48,4.24,4.67-4.67,24.13-4.67,24.13Z" transform="translate(-30 -174)"/><path class="cls-30" d="M710,437a24.45,24.45,0,0,1,.58,4.68c.29,3.07.59,7.45.73,12.86.44,11,.88,26,1.17,42.7s.44,31.73.73,42.7c.15,5.41.15,9.79.29,12.86a36.54,36.54,0,0,1,0,4.68,24.45,24.45,0,0,1-.58-4.68c-.29-3.07-.59-7.45-.73-12.86-.44-11-.88-26-1.17-42.7s-.44-31.73-.73-42.7c-.15-5.41-.15-9.79-.29-12.86A19.28,19.28,0,0,1,710,437Z" transform="translate(-30 -174)"/><path class="cls-9" d="M658.42,699.56c.29-.15-6.29-23-6.29-23l22.23-5.85,4.68,21.5Z" transform="translate(-30 -174)"/><rect class="cls-9" x="654.05" y="509.97" width="25.6" height="18.13"/><path class="cls-8" d="M681.94,711.9,684.29,701h27.3l-2.93,16h-1.47c-6.31.3-36.7,1.76-41,.59C661.69,716.45,681.94,711.9,681.94,711.9Z" transform="translate(-30 -174)"/><path class="cls-8" d="M838,379.48c1.9,6.14,3.8,12.43,5.7,18.57a5.52,5.52,0,0,1,.44,2.63c0,2.64-2.63,4.68-5.26,5.12a19,19,0,0,1-8.05-.88c-.73,2.64-3.94,3.81-6.72,4.24a61.77,61.77,0,0,1-37-4.53,100.88,100.88,0,0,0,12-22.08l29.25,1.32a12.17,12.17,0,0,0,5.12-.44,4.57,4.57,0,0,0,3.21-3.66" transform="translate(-30 -174)"/><path class="cls-29" d="M724.66,461.22,721.73,458a35.35,35.35,0,0,1-5-5.26,11.32,11.32,0,0,1-1.75-3.22,16.94,16.94,0,0,1-1-4.38,1.46,1.46,0,0,0-1.48-1.45,1.51,1.51,0,0,0-1,.42c-.73,1-1,4.68.73,8.77s-4.53.88-6.87-.29-9.65-4.24-10.68-3.95c-1.31.59-.88,2.2,1.46,3.22s9.22,4.83,8.49,6S692.2,453,692.2,453s-2.34-1.61-3.07-.29c-1.47,2.34,11.55,7.75,12.72,8.33.87.3.14,1.61-.73,1.17s-11.56-6.14-13.16-3.8c-1.17,1.9,10.67,4.53,12.13,6.87s-8.77-2.92-9.79-1.17c-.44.73-.59,1.17,5.7,3.51,6.58,2.34,25.15,5.71,25.15,5.71l3.07-12.43" transform="translate(-30 -174)"/><path class="cls-9" d="M777.44,432s-10.67,29.82-13.89,30.12c-22.37,2-46.79-7.46-46.79-7.46l-6.14,16.81s63.61,27.49,77.2,1c14.48-28.22,13.75-32.61,13.75-32.61Z" transform="translate(-30 -174)"/><path class="cls-27" d="M778.9,600.57c11.41,50.59,86.27,97.82,86.27,97.82l12.73-15.21s-60.25-52-62.73-75.16,17.4-59.36,17.4-59.36l-20.77-8.48Z" transform="translate(-30 -174)"/><path class="cls-9" d="M804.2,415.89c.44-2.05-.44-10.82-.44-10.82s-8.19-.88-8.77-8.77,0-26.18,0-26.18L810.05,363l16.52,12.14-2.48,39.62Z" transform="translate(-30 -174)"/><path class="cls-8" d="M825.26,381.24s-13.46-1.17-15.8-13l-14.62,13s-4.38-8.78,3.66-17,13.6-6.44,16.81-6.44a25.93,25.93,0,0,1,22.38,19.6c.29,1.17.58,4.09.73,5.55Z" transform="translate(-30 -174)"/><path class="cls-29" d="M803.76,405.07a21.5,21.5,0,0,0,10.82-3.51s-2.48,5.85-10.67,5.56Z" transform="translate(-30 -174)"/><path class="cls-31" d="M786.8,505.23a34,34,0,0,0,1,6.73l57.91,16.23s4.09-25.44-6.44-39.48c-4.82-6.44-3.8-15.65-1.75-23.4l6.87-26.61-9.06-25L798.79,416s-21.2-2.05-28.51,25l13.6,19.74.14,7.46Z" transform="translate(-30 -174)"/><path class="cls-27" d="M843.39,495.29c.58,0,11.11,22.81,1.61,36.41-.88,1.31-3.07,4.38-6,8.77-14,20.91-46.06,70-47.23,77.2C790.46,626.3,764.58,718,764.58,718l-19.31-2.92,15.8-103.82L786.8,505.38Z" transform="translate(-30 -174)"/><path class="cls-8" d="M809.9,367.2s-2.92,5.56-1.75,9.8L795,380.21C795,380.36,792.06,364.28,809.9,367.2Z" transform="translate(-30 -174)"/><path class="cls-8" d="M838.56,381.82s1.61,18.28-14.33,21.5l1-21.94Z" transform="translate(-30 -174)"/><polygon class="cls-32" points="773.47 286.49 725.95 225.37 636.75 264.41 672.72 297.75 713.37 304.18 773.47 286.49"/><polygon class="cls-33" points="748.47 292.63 715.86 305.94 662.63 307.11 636.75 264.41 691.59 260.9 715.27 302.13 748.32 289.7 748.47 292.63"/><path class="cls-34" d="M835.35,413.55" transform="translate(-30 -174)"/><polygon class="cls-31" points="742.62 261.34 733.55 282.98 754.02 292.92 755.92 273.91 742.62 261.34"/><polygon class="cls-35" points="799.21 239.84 795.7 235.9 780.93 239.55 782.68 243.79 799.21 239.84"/><polyline class="cls-26" points="782.56 243.49 776.71 254.6 776.56 243.49 777.15 240.13 781.1 240.13 782.56 243.49"/><polygon class="cls-35" points="776.69 243.79 777.42 239.55 773.76 238.09 769.52 241.89 776.69 243.79"/><path class="cls-36" d="M780.51,458.59" transform="translate(-30 -174)"/><path class="cls-35" d="M784.21,467.06a2.84,2.84,0,0,0,.29-1.46,6,6,0,0,0-1.76-3.66c-1-1.32-2.77-2.63-3.07-4.68A6.31,6.31,0,0,1,780,454a6.13,6.13,0,0,1,2-2.63,5.83,5.83,0,0,1,3.07-1h.3v-.29c.58-4.1,1.31-7.9,1.61-10.53a9.21,9.21,0,0,0-.15-4.24,37.6,37.6,0,0,0-.44,4.24c-.29,2.63-1.17,6.29-1.9,10.53l.44-.44A6.31,6.31,0,0,0,778.6,456a5.76,5.76,0,0,0,.2,1.6,7.7,7.7,0,0,0,1.46,2.93c.73.73,1.32,1.46,1.9,2a6.33,6.33,0,0,1,1.9,3.21C784.35,466.47,784.06,467.06,784.21,467.06Z" transform="translate(-30 -174)"/><path class="cls-35" d="M783.88,438.56c-.15.14.29,1.16.87,2.33s.88,2.34,1.17,2.34.3-1.31-.29-2.63S784,438.41,783.88,438.56Z" transform="translate(-30 -174)"/><path class="cls-35" d="M762.82,457a65,65,0,0,0,10.53,5.41,89.41,89.41,0,0,0,11,4.24c.14-.29-4.68-2.34-10.68-5S763,456.83,762.82,457Z" transform="translate(-30 -174)"/><path class="cls-35" d="M764,453.91a137.82,137.82,0,0,0,19.16,9.8,65.67,65.67,0,0,0-9.36-5.27A64.43,64.43,0,0,0,764,453.91Z" transform="translate(-30 -174)"/><path class="cls-35" d="M791.48,439.29c0,.29,1.17.43,2.78.58s2.78,0,2.78-.29-1.17-.44-2.78-.59S791.48,439,791.48,439.29Z" transform="translate(-30 -174)"/><path class="cls-35" d="M791,440.31c0,.29,1.32.73,3.22,1.17a9.32,9.32,0,0,0,3.36.44c0-.29-1.31-.73-3.22-1.17S791,440,791,440.31Z" transform="translate(-30 -174)"/><path class="cls-8" d="M743.52,714.91s-17,4.39-12.72,5.7,33.63-1.9,33.63-1.9l1-3.21Z" transform="translate(-30 -174)"/><polygon class="cls-8" points="734.43 544.96 740.28 529.17 714.4 529.17 713.52 541.16 734.43 544.96"/><path class="cls-8" d="M865.32,699.41s-4.24,16.52-1.17,13.45,14.77-29.39,14.77-29.39l-2.49-2.34Z" transform="translate(-30 -174)"/><polygon class="cls-8" points="848.92 509.47 837.66 496.9 825.09 518.83 835.32 525.41 848.92 509.47"/><path class="cls-8" d="M808.73,362.08a9.62,9.62,0,0,0-4.09.44,17.48,17.48,0,0,0-8.33,5,18.7,18.7,0,0,0-4.54,8.48,8.38,8.38,0,0,0-.14,3.95c.14,0,.14-1.46.87-3.8a19,19,0,0,1,12.43-13C807.13,362.37,808.73,362.23,808.73,362.08Z" transform="translate(-30 -174)"/><path class="cls-37" d="M699.8,458.88a3.6,3.6,0,0,0,4,2.63c1.46-.44,2-2.48,1.31-4.38a3.59,3.59,0,0,0-3.94-2.64A3.27,3.27,0,0,0,699.8,458.88Z" transform="translate(-30 -174)"/><path class="cls-38" d="M818.24,506.25s-.73-73.1,1.9-78.66c0,0,2.78-13.75,13.6-14l-4.83.29s-9.79-.73-12.72,18.14-2.63,74.86-2.63,74.86Z" transform="translate(-30 -174)"/><path class="cls-38" d="M797.18,509.05s-2.92-84-.58-92.79h-2.93s-2.63,7.16-2,27.33c.29,12.12,0,65.46,0,65.46Z" transform="translate(-30 -174)"/><path class="cls-26" d="M762.53,471.45s-14.19,8.78-17.26,8.63-12-.29-11.11.88,11.11,2.78,11.11,2.78Z" transform="translate(-30 -174)"/><path class="cls-9" d="M763.7,489.88s67.26,17.54,76.47-10.82c9.8-30,9.94-22.23,9.94-22.23l-21.05-19.74s-11.26,34.66-14.48,35.39c-17.69,4.38-37.72,1.61-44.74.29-.73-.58-1.76-1.46-2.78-2.34a10.8,10.8,0,0,1-2.19-2.92,14.78,14.78,0,0,1-1.61-4.1,1.46,1.46,0,0,0-2.63-.73c-.59,1-.15,4.83,2.19,8.63,0,0-15.94,9.94-17.25,12.43Z" transform="translate(-30 -174)"/><path class="cls-31" d="M835.35,413.55s15.35,2.78,15.93,26.32a89.32,89.32,0,0,1-9.21,41.24L816,468l19.31-54.4" transform="translate(-30 -174)"/><path class="cls-35" d="M816.19,468.09a31.86,31.86,0,0,0,3.95,1.9c2.48,1,5.7,2.63,9.36,4.39s6.87,3.65,9.06,5a27.27,27.27,0,0,0,3.8,2,12.34,12.34,0,0,0-3.5-2.49,77.82,77.82,0,0,0-9.07-5.12,79,79,0,0,0-9.5-4.24A12.27,12.27,0,0,0,816.19,468.09Z" transform="translate(-30 -174)"/><path class="cls-35" d="M817.21,466.34a19.38,19.38,0,0,0,3.95,1.61c2.49.87,5.85,2.33,9.36,3.94s6.73,3.37,9.07,4.68a14.09,14.09,0,0,0,3.8,1.9A19,19,0,0,0,840,476a87.2,87.2,0,0,0-8.91-5,90.65,90.65,0,0,0-9.51-3.81A29.65,29.65,0,0,0,817.21,466.34Z" transform="translate(-30 -174)"/><path class="cls-35" d="M824.67,441.19c.29,0,.73-1.9.44-4.39a7.65,7.65,0,0,0-1.17-4.24c-.29,0,.15,2.05.29,4.39S824.38,441.19,824.67,441.19Z" transform="translate(-30 -174)"/><path class="cls-35" d="M816.19,468a22.6,22.6,0,0,0,2.49-4.68,84.84,84.84,0,0,0,4.53-11.85A83.63,83.63,0,0,0,826,439a23.77,23.77,0,0,0,.44-5.26,49.3,49.3,0,0,0-1.17,5.12,117.22,117.22,0,0,1-3.07,12.28c-1.47,4.68-3.07,8.92-4.24,11.84S816,467.8,816.19,468Z" transform="translate(-30 -174)"/></g></svg>