<?xml version="1.0" encoding="utf-8"?>
<!-- Generator: Adobe Illustrator 22.0.1, SVG Export Plug-In . SVG Version: 6.00 Build 0)  -->
<svg version="1.1" id="Layer_1" xmlns="http://www.w3.org/2000/svg" xmlns:xlink="http://www.w3.org/1999/xlink" x="0px" y="0px"
	 viewBox="0 0 932.7 630.2" style="enable-background:new 0 0 932.7 630.2;" xml:space="preserve">
<style type="text/css">
	.st0{fill:url(#SVGID_1_);}
	.st1{fill:#EFEFEF;}
	.st2{fill:none;stroke:#E1E0E0;stroke-miterlimit:10;}
	.st3{fill:#FFFFFF;}
	.st4{fill:#004970;}
	.st5{fill:#F5F5F5;}
	.st6{fill:#AAAAAA;}
	.st7{fill:#01384F;}
	.st8{fill:#FACBB6;}
	.st9{fill:none;stroke:#B66050;stroke-width:0.7;stroke-linecap:round;stroke-linejoin:round;}
	.st10{fill:#4F4F4F;}
	.st11{fill:#4F4F4F;stroke:#2A94F4;stroke-width:0.7;stroke-miterlimit:10;}
	.st12{fill:none;stroke:#2A94F4;stroke-width:0.7;stroke-miterlimit:10;}
	.st13{fill:#EABEAC;}
	.st14{fill:none;stroke:#000000;stroke-width:0.46;stroke-linecap:round;stroke-linejoin:round;}
	.st15{fill:none;stroke:#1F120C;stroke-width:1.91;stroke-miterlimit:10;}
	.st16{fill:#020102;}
	.st17{fill:#ECECEC;}
	.st18{fill:#EFBEAB;}
	.st19{fill:#DAD8DE;}
	.st20{fill:#010102;}
	.st21{fill:#ECA646;}
	.st22{fill:#082133;}
	.st23{fill:#EFBEAA;}
	.st24{fill:none;stroke:#000000;stroke-width:0.48;stroke-linecap:round;stroke-linejoin:round;}
	.st25{fill:#F6B69A;}
	.st26{fill:#CDEAFB;}
	.st27{fill:#2A94F4;}
	.st28{fill:#F19180;}
	.st29{fill:#1E3058;}
	.st30{fill:#333333;}
	.st31{opacity:0.34;fill:url(#SVGID_2_);enable-background:new    ;}
	.st32{fill:#A9CCEA;}
	.st33{fill:#FCD286;}
	.st34{fill:#F9B751;}
	.st35{fill:none;stroke:#FFEBD4;stroke-width:0.1;stroke-miterlimit:10;}
	.st36{fill:#F3EFEA;}
	.st37{fill:#008FC1;}
</style>
<title>group-presentation-5</title>
<g id="Layer_3">
	
		<linearGradient id="SVGID_1_" gradientUnits="userSpaceOnUse" x1="62.4683" y1="627.4253" x2="931.5753" y2="125.6462" gradientTransform="matrix(1 0 0 1 -32.72 -33.81)">
		<stop  offset="0" style="stop-color:#01BEC4"/>
		<stop  offset="1" style="stop-color:#257CE3"/>
	</linearGradient>
	<path class="st0" d="M51.3,110.2C220.7-5.6,317.1-4.9,374.3,19.1c38.5,16.1,49.2,38.6,94,44.4c83.4,10.8,114-59.2,217-63.2
		c66.4-2.6,116.1,24.1,134,34c28.3,15.7,97.7,54.8,102,112.4c4.8,64.9-77.5,94.7-65.3,152.3c7.5,35.3,40.4,33.5,61.3,73.4
		c32.1,61.1,6.8,163.5-56,213.4c-79.5,63.2-197.7,37.1-233,29.3c-86.5-19.1-111.8-58.8-171-45.3c-58.1,13.2-63.2,58.2-114,60.4
		c-58.1,2.5-72.1-55.5-134-58.5c-70.2-3.5-96.7,69.1-140,57.6c-51.6-13.7-87.2-135.1-55-226.6C36.9,338.3,83.4,316.1,72,275
		c-12-43.6-73.2-51.1-71.7-90.4c0.9-22.6,22.2-47.2,27-52.9C34.4,123.4,42.4,116.2,51.3,110.2z"/>
</g>
<g id="Layer_1_1_">
	<rect x="80.5" y="122.5" class="st1" width="278.8" height="261.7"/>
	<rect x="91.3" y="133.4" class="st2" width="278.8" height="261.7"/>
	<polygon class="st3" points="122.7,383.1 80.1,383.1 316.6,122.5 359.4,122.5 	"/>
	<polygon class="st3" points="359.3,161.8 359.3,171.9 166.6,384.2 157.5,384.2 	"/>
	<rect x="570.9" y="121.4" class="st1" width="278.8" height="261.7"/>
	<rect x="582.8" y="132.2" class="st2" width="278.8" height="261.7"/>
	<polygon class="st3" points="613.6,382 571,382 807.4,121.4 850,121.4 	"/>
	<polygon class="st3" points="850.8,160.7 850.8,170.8 658.2,383.1 649,383.1 	"/>
	<path class="st4" d="M231,522.6c0-0.7,0-1.6-0.1-2.3l-4.5-0.4c-1.3-140.9-2.1-277.6,0.6-370c1.3,0.1,2.7,0.1,3.8,0.3
		c0.3-0.9,0.6-1.6,0.7-2.5c11.4,19.2,24.2,37.7,36.4,54.6l1.1-0.7c-12.4-17.3-25.4-36.2-37-55.7c0.2-1.3,0.2-2.5,0.1-3.7
		c-1.6-0.4-3.3-1-5-1.4c0.3-10.5,0.7-20.3,1.3-29.4h-15.8c1.1,8.4,2,17.6,3,27.3c-1,0-1.9-0.1-2.8-0.1c-0.4,2.1-0.7,4.4-1.1,6.5l0,0
		l-34.5,39.5l1.1,1l33.3-38.1c0,1-0.1,1.9-0.1,2.8c1.7,0,3.4-0.1,5.1-0.1c6.8,91.6,4.7,229,2.8,369.8h-5.9c-0.1,1.1-0.2,2.1-0.1,3.3
		c-18,17.4-39.8,30.6-63.5,38.7c8.7,0.3,17.8,0.3,26.6-0.1c-1-0.4-1.4-1.5-1.1-2.5c0.4-1,1.1-1.7,1.9-2.3
		c11.7-10.1,24-19.6,36.5-28.7c0.3,1.4,0.6,2.8,1,4.1c1.9,0.2,3.7,0.2,5.7,0.2c-0.1,12.8,0.3,27.6-4.7,29.7
		c4.7,0.5,9.4,0.4,14.1-0.2c-4.1-3-5.1-17.2-6-29.4c1.9-0.2,3.7-0.2,5.8-0.3c0.3-1.3,0.6-2.5,0.7-3.7c12.6,9.1,24.9,18.6,36.5,28.7
		c0.9,0.6,1.5,1.4,1.9,2.3c0.3,1-0.1,2-1.1,2.5c8.7,0.4,17.8,0.4,26.6,0.2C270.5,553.3,249,540,231,522.6z"/>
	<path class="st5" d="M133.8,192.1l25.9,253.6l144.4-2l5.8-220.6C251.9,208.6,193.1,198.3,133.8,192.1z"/>
	<path class="st4" d="M316.5,212.7c2,1.4-3.8,10.5-6.8,10.5c-58.7-9.4-117.4-21.7-175.9-31c-2.8,0.3-4.7-14.8-1.9-15.2
		C195.5,182.9,258.3,194.4,316.5,212.7z M167.6,466.4c44.3-10.3,89.6-16.1,135.1-17c2,0,3-5.4,1.3-5.9c-47.9-6.4-96.6-5.7-144.4,2
		C154.4,447.6,162.3,468.4,167.6,466.4z"/>
	<path class="st6" d="M288.8,433.9c-20.7-3.4-41.6-5.2-62.5-5.3c-10.2,0-20.6,0.3-30.7,1l-7.7,0.6l-7.7,0.7l-7.7,1l-8.3,1.1
		c-1.1-9.7-2-19.3-3.1-29c-1.1-9.7-1.9-18.9-2.8-28.4c-1.9-18.9-3.6-37.8-5.4-56.8c-3.6-37.9-7.4-76.3-11.7-115.8
		c5,39.5,9.2,77.9,13.1,115.8s7.5,75,11.2,112.5l6.8-1l7.7-0.7l7.7-0.6l7.7-0.4c10.2-0.6,20.6-0.7,30.8-0.6
		C247.2,428.2,268.1,430.2,288.8,433.9z"/>
	<path class="st7" d="M296.9,210.6c-26.4-6.4-51.7-11.5-77.4-15.8s-51.2-7.8-78.3-10.5c26.4,1.6,52.7,4.5,78.7,8.9
		C245.9,197.7,271.6,203.5,296.9,210.6z"/>
	<path class="st7" d="M293.4,445.5c-22.2-0.7-43.2-1.7-64.3-1.1c-21.1,0.6-42.1,2.7-63.5,8.4c21.2-6.8,42.6-9.4,63.7-10
		C250.4,442.1,271.5,443.5,293.4,445.5z"/>
	<polygon class="st8" points="292.8,554.4 295.5,511.1 314.2,517.4 308.1,561.5 292.1,555.9 	"/>
	<path class="st7" d="M311.7,553.4c0,0-14.5,3.6-19.6-6.5l-35.8,12.5l57.7,8.7L311.7,553.4z"/>
	<polygon class="st3" points="255.4,564.3 313.3,573.1 313.9,568 256.2,559.3 	"/>
	<path class="st7" d="M336.1,351.6l-1,2.8c-9.9,16.9-18.1,34.6-24.5,53l-16.1,46.3c-1.7,4.8-2.8,9.7-3.1,14.8l-5.9,68.3l32,2.3
		l8.1-68.8l37.8-73.3l-2-42.9L336.1,351.6z"/>
	<polygon class="st8" points="401.6,542.4 378.5,506.3 397.1,499.5 418,538.6 401.9,544.1 	"/>
	<path class="st7" d="M416.1,529.8c0,0-9.5,12.1-19.5,7l-21.3,32.3l51.2-29L416.1,529.8z"/>
	<polygon class="st3" points="377.8,573.7 428.9,544.7 426.4,540.2 375.2,569.3 	"/>
	<path class="st7" d="M345.5,392.3l6.9,69c0.3,3.2,1.2,6.4,2.5,9.4l28.7,63.8l28.7-16.2l-24.8-57.7l1.1-49.9c0,0,2.8-45.6-11.8-62.8
		l-27.5,4.5L345.5,392.3z"/>
	<polygon class="st8" points="281,309.9 294.5,323 289.1,331.8 274.8,316.3 	"/>
	<path class="st8" d="M280.8,309.9v-16.5c0-0.9-0.6-1.5-1.4-1.7l0,0c-0.9-0.2-1.8,0.3-2,1.2l0,0l-1.3,4.5l-10.7-11.5
		c-0.7-0.7-1.9-0.9-2.7-0.1c-0.2,0.1-0.3,0.3-0.4,0.5l-3.6,6.5c-0.3,0.5-0.3,1.2,0,1.7c1.9,3.9,9.5,19,15.9,21.9L280.8,309.9z"/>
	<path class="st9" d="M268.4,306.1"/>
	<path class="st9" d="M272.9,297.4"/>
	<path class="st10" d="M342.1,282.5c0,0,3.6,8.1-13.5,49.5c0,0-9.4,17.2-13.5,17.8c-6.7,1-25.4-9.2-39.8-29.8l10.8-8l21,12.2
		l12.4-32C319.5,292.1,326.7,270.9,342.1,282.5z"/>
	<path class="st11" d="M311.7,333.6"/>
	<path class="st11" d="M307.2,324"/>
	<path class="st10" d="M359.6,269.2l28.3,12.5c1.9,1,3.2,3,3,5.1l-7,73.5c0,0-28.4,8.4-53.8,3.3l-5.3-75.6c-0.3-2.2,0.4-4.5,2.1-5.9
		l18.1-12.7L359.6,269.2z"/>
	<path class="st12" d="M328.4,332"/>
	<path class="st12" d="M329.9,288.4"/>
	<polygon class="st8" points="358,341 376.8,340.7 379.4,350.8 358.1,350.1 	"/>
	<path class="st8" d="M358.4,340.5l-11.8-11.7c-0.6-0.5-1.5-0.6-2.1-0.1l0,0c-0.7,0.5-1.1,1.5-0.6,2.3l2.3,4.1l-10.2,1.3
		c-1.1,0-1.9,0.9-1.9,1.9c0,0.2,0,0.4,0.1,0.5l2.1,7.1c0.1,0.6,0.6,1.1,1.3,1.3c4.1,1.4,14.7,4.8,21.2,2.1L358.4,340.5z"/>
	<path class="st10" d="M389,281.8c0,0,8.1,3.6,22.8,44.2c0,0,5.4,15.6,2.8,18.6c-4.4,4.8-26.2,12.5-50.6,6.7l-0.3-13.2l26.8-4.1
		L378.4,303C378.5,303.1,369.8,283.2,389,281.8z"/>
	<path class="st11" d="M390.5,334"/>
	<path class="st11" d="M382.9,354"/>
	<path class="st8" d="M341.5,241.3c0.2,3.4-2.3,6.4-5.8,6.7h-0.2c-3.5,0.1-6.5-2.7-6.5-6.3c-0.2-3.4,2.3-6.4,5.8-6.7h0.2
		C338.5,235,341.4,237.7,341.5,241.3z"/>
	<path class="st8" d="M344.4,256.5l-0.4,11.7c-0.1,5.4,3,8.4,8.1,8.4l0,0c4.4,0.1,10.8-3,10.7-7.7v-19.5L344.4,256.5z"/>
	<path class="st13" d="M344.2,266.6c0,0,15.3-0.3,19.5-14.4c1.4-4.4-19.2,2.5-19.2,2.5L344.2,266.6z"/>
	<path class="st8" d="M349.1,261.2L349.1,261.2c-8.7-0.1-16-7.7-16-15v-15.7c-0.2-9.2,6.9-16.9,16.1-17.4l0,0
		c9.3-0.4,18.7,6.9,19.1,16.4l-0.1,12.3C368.2,252.3,359.6,261,349.1,261.2z"/>
	<path class="st14" d="M348.5,248.7"/>
	<path class="st14" d="M341.1,248.1"/>
	<path class="st4" d="M337.8,205.1c3.4-1.3,12.2-2.5,13.5,5.1c8.5-0.3,22.2,0.4,23.3,8c1.6,10.9-6.7,21.3-6.7,21.3l-2.1,1
		c0,0-5.4-3.1-3.3-16.1c0,0-20,3.9-29-1.6C324.3,217.2,327.5,208.9,337.8,205.1z"/>
	<path class="st8" d="M376.1,241.7c0.1,3.4-2.7,6.3-6.1,6.4c-3.4,0.1-6.3-2.7-6.4-6.1s2.7-6.3,6.1-6.4c3.4-0.1,6.3,2.5,6.4,5.9l0,0
		V241.7z"/>
	<path class="st8" d="M344.8,268.7l-4.7,3.3c0,0-2.8,7.8,10.5,8.7s17.2-8.5,17.2-8.5l-9.4-4.8L344.8,268.7z"/>
	<line class="st15" x1="435.5" y1="397.9" x2="435.5" y2="568.6"/>
	<rect x="369.6" y="393.4" class="st10" width="130.9" height="9.1"/>
	<path class="st16" d="M405.9,393.4h64.5c2-0.2,3.5-1.9,3.4-3.9l0,0c0.1-2-1.4-3.8-3.4-3.9h-64.5c-2,0.2-3.5,1.9-3.4,3.9l0,0
		C402.4,391.5,403.9,393.2,405.9,393.4z"/>
	<path class="st16" d="M405.5,390.1c0.2,0,0.3,0,0.4-0.2c0.5-0.3,0.6-1.1,0.3-1.6l-32.8-56.8c-0.3-0.4-0.9-0.6-1.4-0.3l0,0l0,0
		c-0.5,0.3-0.6,1.1-0.3,1.6l32.8,56.8C404.8,390,405.1,390.1,405.5,390.1z"/>
	<path class="st17" d="M542.3,422l-68,1.9c-11.5,0.4-20.2,11.7-18.6,24.2l0,0c1.4,10.3,9.7,18.1,19.2,18.1h81c0,0,29.1-11.2,20-38.5
		L542.3,422z"/>
	<path d="M471,556.8l-11.4,6.1c-1.3,0.7-1.9,2.1-1.6,3.6c0.3,1.1,1.3,2,3.7,2c5.7,0.2,30.6-3.9,30.6-3.9v2.8l11.5-1.4
		c0,0,0.7-14.4-2.7-16.4L471,556.8z"/>
	<path class="st18" d="M489.7,542.5l-18.5,14.4c0,0,2,5.4,10.7,1.9c8.6-3.6,19.5-9.2,19.5-9.2l-1.6-8.5L489.7,542.5z"/>
	<polygon class="st18" points="501.7,549.5 490.6,495.5 472.3,497.4 487.7,547.7 	"/>
	<polygon class="st17" points="455.8,448.1 471.1,536.8 506.2,536.8 492.7,449.5 	"/>
	<path class="st17" d="M539,422l-51.3,1.9c-11.5,0.4-20.2,11.7-18.6,24.2l0,0c1.4,10.3,9.7,18.1,19.2,18.1h81c0,0,29.1-11.2,20-38.5
		L539,422z"/>
	<path d="M484.7,556.8l-11.4,6.1c-1.3,0.7-1.9,2.1-1.6,3.6c0.3,1.1,1.3,2,3.7,2c5.7,0.2,30.6-3.9,30.6-3.9v2.8l11.6-1.4
		c0,0,0.7-14.4-2.7-16.4L484.7,556.8z"/>
	<path class="st8" d="M503.3,542.5l-18.5,14.4c0,0,2,5.4,10.6,1.9c8.5-3.5,19.5-9.2,19.5-9.2l-1.6-8.5L503.3,542.5z"/>
	<polygon class="st8" points="515.2,549.5 504.1,495.5 485.6,497.4 501.3,547.7 	"/>
	<polygon class="st17" points="469.3,448.1 484.6,536.8 519.7,536.8 506.1,449.5 	"/>
	<rect x="559.6" y="475.3" class="st19" width="11.4" height="66"/>
	<polygon class="st19" points="568.2,532.5 599.7,548 599.3,552.4 566.3,540.9 	"/>
	<polygon class="st19" points="562.9,532.5 531.4,548 531.8,552.4 564.6,540.9 	"/>
	<ellipse class="st20" cx="598.3" cy="560.1" rx="7.5" ry="8.1"/>
	<ellipse class="st20" cx="531.4" cy="560.1" rx="7.5" ry="8.1"/>
	<path class="st10" d="M534.8,479.8H598c3.6-0.1,6.5-3.2,6.4-6.8l0,0l0,0c0.1-3.6-2.8-6.7-6.4-6.8l0,0h-63.2
		c-3.6,0.1-6.5,3.2-6.4,6.8l0,0l0,0C528.3,476.6,531.1,479.7,534.8,479.8L534.8,479.8L534.8,479.8z"/>
	<path class="st21" d="M542.8,342.9l-27,39.5c-4.1,6-3.5,13.9,1.4,19.2l0,0c4.8,5.1,12.8,5.4,18,0.7l0,0c0.9-0.7,1.5-1.6,2.1-2.6
		l24.2-35.4L542.8,342.9z"/>
	<path class="st8" d="M492.6,363.1c0,0-4.8-9.8-13.1-12.2c-6.4-1.7-11.7,8.7-13.8,13.4c-0.5,1.1-0.1,2.2,1,2.8h0.1l0,0
		c0.6,0.1,1.3-0.1,1.7-0.6l2.1-3.3c0,0-0.4,7,5.1,6.4c5.5-0.6,7.4-3,7.4-3l6.2,4.7L492.6,363.1z"/>
	<polygon class="st22" points="531.2,383 491.9,354.3 481.5,371.3 522,405.2 	"/>
	<path class="st22" d="M541.6,334.4c0,0,17.6,7.5,30.3,34c12.7,26.6,17.5,59.4,17.5,59.4s-23.4,7-50.4-5.7l-9.5-33.1
		c0,0-8.4-10.6,0-43.9L541.6,334.4z"/>
	<path class="st8" d="M483.3,373.7c0,0-6.7-8.3-15.2-8.3c-6.5,0-9.5,11.5-10.6,16.6c-0.3,1,0.3,2,1.3,2.2l0,0l0.4,0.1l0,0
		c0.6-0.1,1.3-0.4,1.6-1.1l1.6-3.7c0,0,1,7,6.3,4.8c5.3-2.2,6.5-4.8,6.5-4.8l7,2.8L483.3,373.7z"/>
	<polygon class="st22" points="523.6,385.6 479.1,367.5 472.7,386.8 519.3,409.4 	"/>
	<path class="st22" d="M539.3,347.3l-27,39.5c-4.1,6-3.5,13.9,1.4,19.2l0,0c4.8,5.1,12.8,5.4,18,0.7c0.9-0.7,1.5-1.6,2.1-2.6
		l24.2-35.4L539.3,347.3z"/>
	<path d="M518.7,316.3l-11.8,0.4c-6.4,7.1-3.9,21-3.9,21l19.3-6.1L518.7,316.3z"/>
	<polygon class="st8" points="517.3,326.4 529.5,345.5 541.6,334.4 523.9,306.7 	"/>
	<polygon class="st23" points="524.3,336.5 524.1,323.6 518.9,328.4 	"/>
	<path class="st8" d="M501.7,287.8c0,0-8.1,4.3-5.4,15.9c0,0,2,8.4,5,20.6c1.6,6.4,8.3,9.8,13.5,6.7c3.8-2.1,7-5.1,9.5-8.7l3.6-6.5
		c7.8-17.5-8.5-36.4-25-28.6C502.6,287.4,502.2,287.7,501.7,287.8z"/>
	<path class="st8" d="M500.5,315.3l-2.9,5.1c-0.3,0.7,0.1,1.6,1,1.4l3.9-0.7L500.5,315.3z"/>
	<path class="st24" d="M505.1,322.2"/>
	<path class="st24" d="M502.1,324.4"/>
	<path d="M518.6,304.9c0,0-2.5-29.4-21.7-11.2c0,0,4.5-17.9,26.7-14.9c5.3,1.1,9.9,4.5,12.4,9.4c3.3,7.4,1.1,15.2-2,29.3l-10-7
		C522.3,308.4,520.5,306.5,518.6,304.9z"/>
	<path d="M523.6,294.5l-1.4,12.9c-31.2-0.7-22-19.3-22-19.3S521.3,273.4,523.6,294.5z"/>
	<polygon points="510.6,304.4 516.4,309.7 519.3,300.6 	"/>
	<path d="M504.7,288.4c0,0-9.4,4.8-8.7,12.7c0,0-10-6.3,5-14.8C509.9,281.2,504.7,288.4,504.7,288.4z"/>
	<path d="M522,311c0,0,5.7,13.4,5.7,18.9l23.6-8.9c0,0-6.8-7.8-9.1-14.6c-1.7-5.4-2.5-19-12.8-25.1l0.4,17.9L522,311z"/>
	<path class="st8" d="M527.5,306.3c1.2,3.2-0.3,6.8-3.4,8.3c-3.1,1.1-6.5-0.4-7.6-3.5l0,0c0-0.1-0.1-0.1-0.1-0.2
		c-1.2-3.2,0.3-6.8,3.4-8.3c3-1.2,6.3,0.3,7.5,3.3C527.3,306,527.5,306.1,527.5,306.3z"/>
	<path class="st24" d="M522.4,305.5"/>
	<path class="st24" d="M520,310.7"/>
	<path class="st8" d="M541.6,334.4c0,0-3.7,11.8-13.4,16.3l2.8-13.2L541.6,334.4z"/>
	<path class="st25" d="M563.3,275.3l10.3,6l-0.7,6.1l8.1,7.4l-10.8,12.4l-25-17.1c0,0,6.7-21.2,8.3-20.8
		C555.1,270,563.3,275.3,563.3,275.3z"/>
	<polygon class="st26" points="548.6,269.3 553,300.9 570.3,301.3 574.6,269.3 	"/>
	<polyline class="st27" points="544.7,270.5 577.7,270.5 577.7,267.1 574.3,267.1 574.3,261.8 547.9,265.5 547.7,267.1 544.7,267.1 
		544.7,270.5 	"/>
	<path class="st8" d="M547.2,290.8c-6.1,0.4,1.6-14.5,1.6-14.5s16.3-1,16.5-0.1c0.3,1-0.1,2.1-1.2,2.5l0,0h-0.1
		c-1.3,0.3-11.5,1.6-11.5,1.6s10.6,0.4,10.5,1.6c-0.3,1.6-1.6,1.7-4.7,2.1c-2.7,0.3-8.5,0.4-8.5,0.4s11.2,0.1,11.1,1
		c-0.1,0.9,0.4,2.8-3.4,2.1C548.4,286.2,547.2,290.8,547.2,290.8z"/>
	<path class="st25" d="M573.5,277.4c0,0,3.9-7.1,8.7-6.8c0,0-5.8,6.4-6.5,10.8c-0.7,4.4-1.1,7.4-1.1,7.4h-2.5L573.5,277.4z"/>
	<path class="st4" d="M620.9,351.4c0,0-16.8,106.6-8.9,129.2c4.8,14,8.4,28.4,10.8,43l38.7-10.3c0,0-12.8-53.3-14.7-63.5
		s17.9-93.5,17.9-93.5L620.9,351.4z"/>
	<path class="st4" d="M639.2,358.6L657.4,530h37c0,0-12.1-181.3-9.8-182.9C686.7,345.6,639.2,358.6,639.2,358.6z"/>
	<path class="st7" d="M624.5,254.7c0,0-3.9,57.4-12.5,55.4c-8.5-2-31.4-17-31.4-17l-13.9,13.8c0,0,42.2,42.6,59.6,25.1
		C644,314.5,624.5,254.7,624.5,254.7z"/>
	<path class="st7" d="M636.1,558.9l-2.5-11.5l27-9.8l4.3,17.2l-1.6,0.2c-6.1,2.5-35.4,14.8-40.1,15.3
		C617.9,570.6,636.1,558.9,636.1,558.9z"/>
	<path class="st8" d="M700.2,390.7l-3,3.9c-1.4,2.3-3,4.6-4.8,6.5c-1,1.1-2,1.9-3.3,2.7c-1.6,0.9-3.2,1.6-4.8,2.1
		c-1.6,0.3-2,2.1-0.6,2.8c1.4,0.6,6-0.3,10.1-3.1c4.2-2.8,2.3,4.5,1.6,7.1c-0.7,2.7-2.3,11.1-1.6,12.1c1.1,1.3,2.8,0.4,3.4-2.3
		c0.6-2.8,3-10.8,4.5-10.3s-2,14.1-2,14.1s-1.3,2.8,0.4,3.3c3.3,1,5.9-13.9,6.1-15.3c0.2-1,1.9-0.6,1.6,0.4
		c-0.3,1.1-3.9,13.5-0.6,14.5c2.5,0.7,2.3-12.2,4.7-14.4c2.3-2.1-1,9.8,1.4,10.5c1,0.1,1.6,0.3,2.5-6.8c0.9-7.1-0.4-27.4-0.4-27.4
		l-15.8,0.1"/>
	<path class="st8" d="M646.8,235.3c0.3-2.3-1-11.8-1-11.8s-9.7-0.6-10.6-9.4c-0.9-8.7-1.1-28.7-1.1-28.7l17.3-8.3l19.8,12.8l4.5,9.5
		l-6,22.6v11.4L646.8,235.3z"/>
	<path class="st28" d="M645.6,223.4c4.5-0.3,8.9-1.8,12.6-4.3c0,0-2.7,6.4-12.4,6.4L645.6,223.4z"/>
	<path class="st7" d="M675.2,208.9c-1.8,4.2-3.3,8.5-4.2,12.9c-1.4,2.3-1.9-5.1-1.9-5.1s-1.3-7.4-0.2-10.1c0,0,4.8,1.4,6-6.5
		c0.4-3.8-6-5.8-7.8-1.1l-4.1,0.3c0,0-0.3-14.8-9.7-12.2c0,0-6.8,3.7-10.9,1.4c-4.1-2.3-3.7-3.1-3.7-3.1s-2,3.8-7.1,1.4
		c-5.1-2.5-6-7.1-4.1-9.4c1.1-1.3,2-2.7,3.7-3c1.7-0.3,3.5,0.3,4.7,1.6c-1.3-1.7-0.3-4.3,1.6-5.4c2-1.1,4.4-1.2,6.5-0.3
		c2,0.9,3.9,2,5.7,3.4c1.5-3.3,4.9-5.3,8.5-5c3.5,0.3,6.6,2.8,7.5,6.3c2.3-2.1,5.7-2.7,8.5-1.6c2.8,1.3,4.7,3.7,5.3,6.7
		c0.3,2.9-0.1,5.8-1.3,8.4c2.3-1.1,5.1-0.4,6.7,1.6c1.4,1.9,1.6,4.5,0.4,6.5c-1.3,2-3.1,3.7-5.3,4.7c1.7,1.2,2.1,3.5,1.1,5.3
		c-1.2,1.8-3.4,2.6-5.4,2"/>
	<path class="st28" d="M668.8,203.7c0.1,0.1,0.2,0.1,0.3,0.1c0.1,0.1,0.6,0.1,1.1,0.1c1.1-0.5,1.8-1.6,1.9-2.8
		c0-0.6-0.1-1.3-0.3-1.9c-0.1-0.4-0.4-0.9-1-1.1c-0.3-0.1-0.7,0-1,0.3c-0.1,0.1-0.1,0.2-0.2,0.3c-0.1-0.1-0.2-0.3-0.1-0.4
		c0-0.1,0.1-0.3,0.3-0.4c0.2-0.1,0.5-0.2,0.7-0.1c0.6,0,1.1,0.6,1.4,1.3c0.3,0.6,0.4,1.4,0.3,2c0,1.4-1,2.7-2.3,3.1
		c-0.4,0.1-0.9,0-1.3-0.3L668.8,203.7z"/>
	<path class="st26" d="M708.4,258.1c0,0-6.5-27.6-38.7-24.8l-29.3,2.7c0,0-20.2,7.7-17.3,29.4s4.2,41.6,3.4,45.3
		c-0.7,3.7-7.8,38.1-5.7,40.4c21.2,23.3,75.2-13.9,75.2-13.9L708.4,258.1z"/>
	<path class="st7" d="M669.7,233.5l7.5,161.7l22.3-10.9l-2.3-143.5C697,240.8,691.1,231.4,669.7,233.5z"/>
	<path class="st7" d="M716.6,393.4l-7.7-135.1c-2.3-8.3-7.5-14.6-14.1-20v156.9L716.6,393.4z"/>
	<path class="st7" d="M646.5,235.3c0,0-20,9.1-19,39.4c1,30.3-12.1,116.2-12.1,116.2l-16.6-3.1c0,0,19.3-81.3,20.2-95.6
		c0.9-14.3-0.6-35.1,10.3-49.3C636.8,232.8,646.5,235.3,646.5,235.3z"/>
	<path class="st29" d="M669.8,233.5c0,0,6.5,13.2,6,18.2c-0.6,5-3,15.2-3,15.2s4.8,2.7,4.5,5c-0.3,2.3-5,25.7-5,25.7L669.8,233.5z"
		/>
	<path class="st29" d="M690.8,266.4c0.3,1.6,0.5,3.3,0.6,5c0.3,3.3,0.6,8,0.7,13.8c0.4,11.7,1,27.7,1.3,45.6
		c0.3,17.8,0.4,33.8,0.7,45.6c0.2,5.8,0.2,10.5,0.3,13.8c0.1,1.7,0.1,3.3,0,5c-0.3-1.6-0.5-3.3-0.6-5c-0.3-3.3-0.6-8-0.7-13.8
		c-0.4-11.7-1-27.7-1.3-45.6c-0.3-17.8-0.4-33.8-0.7-45.6c-0.2-5.8-0.2-10.5-0.3-13.8C690.6,269.7,690.6,268,690.8,266.4z"/>
	<path class="st8" d="M635.7,546.6c0.3-0.2-6.7-24.5-6.7-24.5l23.7-6.2l5,22.9L635.7,546.6z"/>
	<rect x="663.1" y="530" class="st8" width="27.3" height="19.3"/>
	<path class="st7" d="M660.8,559.7l2.5-11.6h29.1l-3.1,17.1h-1.6c-6.7,0.3-39.2,1.9-43.7,0.6C639.3,564.5,660.8,559.7,660.8,559.7z"
		/>
	<path class="st7" d="M827.4,205.1c2,6.5,4.1,13.2,6.1,19.8c0.4,0.9,0.5,1.8,0.4,2.8c0,2.8-2.8,5-5.7,5.4c-2.9,0.3-5.9,0-8.6-1
		c-0.7,2.8-4.2,4.1-7.1,4.5c-13.3,2.5-27.1,0.9-39.5-4.8c5.2-7.3,9.5-15.2,12.8-23.6l31.3,1.4c1.8,0.2,3.7,0.1,5.4-0.4
		c1.8-0.5,3.1-2,3.4-3.9"/>
	<path class="st28" d="M706.4,292.2l-3.1-3.4c-1.9-1.7-3.7-3.5-5.3-5.7c-0.9-1.1-1.4-2.2-1.9-3.4c-0.5-1.5-1-3.1-1.1-4.7
		c0-0.9-0.7-1.6-1.6-1.6l0,0c-0.4,0-0.7,0.2-1.1,0.4c-0.7,1.1-1.1,5,0.7,9.4c1.8,4.4-4.8,1-7.4-0.3s-10.3-4.5-11.4-4.3
		c-1.4,0.6-1,2.3,1.6,3.4c2.5,1.1,9.8,5.1,9.1,6.4s-13.2-5.2-13.2-5.2s-2.5-1.7-3.3-0.3c-1.6,2.5,12.3,8.3,13.5,8.9
		c1,0.3,0.1,1.7-0.7,1.3s-12.4-6.5-14.1-4.1c-1.3,2,11.4,4.8,12.9,7.4c1.6,2.5-9.4-3.1-10.5-1.3c-0.4,0.7-0.6,1.3,6.1,3.7
		c7,2.5,26.9,6.1,26.9,6.1l3.3-13.2"/>
	<path class="st8" d="M762.7,261.1c0,0-11.4,31.8-14.8,32.1c-23.9,2.1-49.9-8-49.9-8l-6.5,17.9c0,0,67.9,29.3,82.4,1.1
		c15.5-30.1,14.7-34.8,14.7-34.8L762.7,261.1z"/>
	<path class="st26" d="M764.3,441c12.2,54,92.1,104.3,92.1,104.3l13.5-16.2c0,0-64.3-55.5-66.9-80.2s18.6-63.4,18.6-63.4l-22.2-9.1
		L764.3,441z"/>
	<path class="st8" d="M791.3,243.9c0.4-2.1-0.4-11.5-0.4-11.5s-8.7-1-9.4-9.4c-0.6-8.4,0-28,0-28l16.1-7.6l17.6,12.9l-2.7,42.2
		L791.3,243.9z"/>
	<path class="st7" d="M813.7,206.9c0,0-14.4-1.3-16.9-13.9l-15.6,13.9c0,0-4.7-9.4,3.9-18.1c8.5-8.7,14.5-6.8,17.9-6.8
		c11.5,1.3,21.1,9.6,23.9,20.9c0.3,1.3,0.6,4.4,0.7,5.9L813.7,206.9z"/>
	<path class="st28" d="M790.8,232.4c4.2-0.2,8.1-1.5,11.5-3.7c0,0-2.7,6.3-11.4,6L790.8,232.4z"/>
	<path class="st30" d="M772.7,339.2c0.1,2.5,0.4,4.8,1.1,7.1l61.8,17.3c0,0,4.4-27.1-6.8-42.1c-5.1-6.8-4.1-16.6-1.9-25l7.4-28.4
		l-9.7-26.7l-38.9,2.5c0,0-22.6-2.1-30.4,26.7l14.5,21l0.1,8L772.7,339.2z"/>
	<path class="st26" d="M833.1,328.6c0.6,0,11.8,24.3,1.7,38.8c-1,1.4-3.3,4.7-6.4,9.4c-14.9,22.3-49.2,74.7-50.4,82.4
		c-1.4,9.2-29,107-29,107l-20.6-3.1l16.9-110.7l27.4-113L833.1,328.6z"/>
	<path class="st7" d="M797.4,192c0,0-3.1,6-1.9,10.5l-14.1,3.4C781.5,205.9,778.3,188.9,797.4,192z"/>
	<path class="st7" d="M827.9,207.5c0,0,1.7,19.5-15.3,22.9l1.1-23.4L827.9,207.5z"/>
	
		<linearGradient id="SVGID_2_" gradientUnits="userSpaceOnUse" x1="473.8319" y1="66.0648" x2="400.3966" y2="41.4725" gradientTransform="matrix(-1 7.000000e-02 7.000000e-02 1 1151 194.24)">
		<stop  offset="0" style="stop-color:#FFFFFF"/>
		<stop  offset="0.23" style="stop-color:#FFFFFF;stop-opacity:0.77"/>
		<stop  offset="1" style="stop-color:#FFFFFF;stop-opacity:0"/>
	</linearGradient>
	<polygon class="st31" points="790.6,291.5 739.8,226.3 644.6,267.9 683,303.5 726.4,310.4 	"/>
	<polygon class="st32" points="763.9,298 729,312.2 672.2,313.5 644.6,267.9 703.2,264.2 728.4,308.1 763.7,294.9 	"/>
	<path class="st33" d="M824.5,241.4"/>
	<polygon class="st30" points="757.6,264.6 747.9,287.8 769.8,298.3 771.8,278.1 	"/>
	<polygon class="st34" points="818,241.7 814.2,237.5 798.5,241.4 800.4,245.9 	"/>
	<polyline class="st25" points="800.2,245.6 794,257.5 793.8,245.6 794.4,242 798.7,242 800.2,245.6 	"/>
	<polygon class="st34" points="794,245.9 794.7,241.4 790.8,239.9 786.3,243.9 	"/>
	<path class="st35" d="M766,289.5"/>
	<path class="st34" d="M770,298.5c0.2-0.5,0.3-1.1,0.3-1.6c-0.1-1.5-0.9-2.9-1.9-3.9c-1.1-1.4-3-2.8-3.3-5c-0.2-1.2-0.1-2.3,0.3-3.5
		c0.4-1.1,1.2-2.1,2.1-2.8c1-0.6,2.1-1.1,3.3-1.1h0.3v-0.3c0.6-4.4,1.4-8.4,1.7-11.2c0.3-1.5,0.2-3.1-0.2-4.5
		c-0.2,1.5-0.4,3-0.4,4.5c-0.3,2.8-1.3,6.7-2,11.2l0.4-0.4c-3.7,0-6.7,3-6.7,6.7c0,0,0,0,0,0.1c0,0.5,0.1,1.2,0.2,1.7
		c0.3,1.2,0.9,2.2,1.6,3.1c0.7,0.7,1.4,1.6,2,2.1c1,1,1.7,2.1,2,3.4C770.1,297.9,769.8,298.5,770,298.5z"/>
	<path class="st34" d="M769.6,268.1c-0.2,0.1,0.3,1.3,1,2.5c0.6,1.3,1,2.5,1.3,2.5s0.3-1.4-0.3-2.8
		C770.9,268.9,769.8,267.9,769.6,268.1z"/>
	<path class="st34" d="M747.1,287.8c3.5,2.2,7.4,4.2,11.2,5.8c3.8,1.8,7.7,3.3,11.7,4.5c0.1-0.3-5-2.5-11.4-5.3
		C752.3,289.8,747.3,287.6,747.1,287.8z"/>
	<path class="st34" d="M748.4,284.5c6.5,4.1,13.3,7.5,20.5,10.5c-3.2-2.1-6.5-4.1-10-5.7C755.5,287.3,752,285.7,748.4,284.5z"/>
	<path class="st34" d="M777.8,268.9c0,0.3,1.3,0.4,3,0.6c1.7,0.1,3,0,3-0.3s-1.3-0.4-3-0.6C778.9,268.3,777.8,268.6,777.8,268.9z"/>
	<path class="st34" d="M777.2,270c0,0.3,1.4,0.7,3.4,1.3c1.2,0.4,2.3,0.5,3.6,0.4c0-0.3-1.4-0.7-3.4-1.3
		C778.7,270,777.2,269.6,777.2,270z"/>
	<path class="st7" d="M726.5,562.9c0,0-18.1,4.7-13.5,6.1s35.8-2,35.8-2l1.1-3.4L726.5,562.9z"/>
	<polygon class="st7" points="748.8,567.3 755.1,550.4 727.5,550.4 726.5,563.1 	"/>
	<path class="st7" d="M856.5,546.4c0,0-4.5,17.6-1.3,14.4c3.3-3.3,15.8-31.4,15.8-31.4l-2.7-2.5L856.5,546.4z"/>
	<polygon class="st7" points="871,529.4 858.9,516 845.6,539.3 856.5,546.4 	"/>
	<path class="st7" d="M796.1,186.5c-1.5-0.1-3,0-4.4,0.4c-3.4,0.9-6.5,2.8-8.9,5.3s-4.1,5.7-4.8,9.1c-0.4,1.4-0.4,2.8-0.1,4.3
		c0.1,0,0.1-1.6,1-4.1c1.8-6.5,6.8-11.7,13.2-13.9C794.4,186.8,796.1,186.6,796.1,186.5z"/>
	<path class="st36" d="M679.9,289.8c0.5,1.9,2.3,3.1,4.3,2.8c1.6-0.4,2.1-2.7,1.4-4.7c-0.5-1.8-2.2-3.1-4.2-2.8
		C679.7,286,679.1,288.1,679.9,289.8z"/>
	<path class="st37" d="M806.2,340.3c0,0-0.7-78,2-84c0,0,3-14.7,14.5-14.9l-5.1,0.3c0,0-10.5-0.7-13.5,19.3
		c-3.1,20.2-2.8,79.9-2.8,79.9L806.2,340.3z"/>
	<path class="st37" d="M783.8,343.2c0,0-3.1-89.6-0.6-99h-3.1c0,0-2.8,7.7-2.1,29.1c0.3,12.9,0,69.9,0,69.9H783.8z"/>
	<path class="st25" d="M746.8,303.1c0,0-15.2,9.4-18.5,9.2c-3.3-0.1-12.8-0.3-11.8,1c1,1.3,11.8,3,11.8,3L746.8,303.1z"/>
	<path class="st8" d="M748.1,322.9c0,0,71.8,18.7,81.6-11.5c10.5-32,10.6-23.7,10.6-23.7l-22.4-21c0,0-12.1,37-15.5,37.8
		c-18.9,4.7-40.2,1.7-47.7,0.3c-0.7-0.6-1.9-1.6-3-2.5c-1-0.9-1.7-1.9-2.3-3.1c-0.7-1.4-1.4-2.9-1.7-4.4c-0.1-0.9-0.9-1.5-1.7-1.4
		c-0.4,0-0.9,0.3-1.1,0.6c-0.6,1.1-0.2,5.1,2.3,9.2c0,0-17,10.6-18.5,13.2L748.1,322.9z"/>
	<path class="st30" d="M824.5,241.4c0,0,16.3,3,17,28.1c0.3,15.3-3.1,30.3-9.8,44l-27.8-14L824.5,241.4"/>
	<path class="st34" d="M804.1,299.6c1.4,0.7,2.8,1.5,4.3,2c2.7,1.1,6.1,2.8,10,4.7c3.9,1.9,7.4,3.8,9.7,5.3c1.3,0.9,2.7,1.5,4.1,2.1
		c-1.1-1.1-2.3-2-3.7-2.7c-3.1-2-6.3-3.8-9.7-5.4c-3.3-1.7-6.6-3.2-10.1-4.5C807.1,300.4,805.6,299.8,804.1,299.6z"/>
	<path class="st34" d="M805.2,297.7c1.4,0.7,2.8,1.3,4.3,1.7c2.7,1,6.2,2.5,10,4.2c3.8,1.7,7.1,3.6,9.7,5c1.3,0.9,2.6,1.6,4.1,2
		c-1.1-1-2.3-1.9-3.6-2.7c-3.1-1.9-6.2-3.7-9.5-5.3c-3.3-1.5-6.7-2.9-10.1-4.1C808.3,298.2,806.8,297.9,805.2,297.7z"/>
	<path class="st34" d="M813.1,270.9c0.3,0,0.7-2,0.4-4.7c0-1.6-0.4-3.2-1.3-4.5c-0.3,0,0.2,2.1,0.3,4.7
		C812.7,268.9,812.9,270.9,813.1,270.9z"/>
	<path class="st34" d="M804.1,299.5c1.1-1.6,1.9-3.2,2.7-5c1.9-4.1,3.5-8.3,4.8-12.7c1.3-4.4,2.3-8.7,3-13.3
		c0.3-1.8,0.5-3.7,0.4-5.7c-0.5,1.8-1,3.6-1.3,5.4c-0.9,4.4-1.9,8.7-3.3,13.1c-1.6,5-3.3,9.5-4.5,12.6
		C804.7,297.3,803.9,299.3,804.1,299.5z"/>
</g>
</svg>
